<svg width="535" height="211" viewBox="0 0 535 211" fill="none" xmlns="http://www.w3.org/2000/svg">
<path d="M7.42993 0H39.0499L49.6399 30.12C50.6349 32.5058 51.3619 34.9943 51.8099 37.54H51.9999C52.4579 34.9601 53.1789 32.4337 54.1499 30L64.3299 0H96.7799V59.23H77.2599V26.69C77.3009 22.4951 77.6889 18.3108 78.4199 14.18H77.9999C76.8669 18.1654 75.5319 22.0905 73.9999 25.94L61.1599 59.23H41.2999L29.2099 26.11C27.5399 21.52 26.2099 17.02 25.4499 14.18H25.1199C25.7889 18.3151 26.0829 22.502 25.9999 26.69V59.23H7.42993V0Z" fill="black"/>
<path d="M109.79 59.23V0H131.15V59.23H109.79Z" fill="black"/>
<path d="M144.16 0H166.27L190.54 27.61C192.46 29.8743 194.136 32.3345 195.54 34.95H196V0H215.27V59.23H194.38L169 31.62C166.971 29.3588 165.259 26.8324 163.91 24.11H163.5V59.23H144.16V0Z" fill="black"/>
<path d="M228.33 59.23V0H249.69V59.23H228.33Z" fill="black"/>
<path d="M262.7 0H294.32L304.91 30.12C305.905 32.5058 306.632 34.9943 307.08 37.54H307.25C307.715 34.9594 308.442 32.433 309.42 30L319.6 0H352.05V59.23H332.53V26.69C332.571 22.4951 332.959 18.3108 333.69 14.18H333.28C332.147 18.1654 330.812 22.0905 329.28 25.94L316.43 59.23H296.57L284.48 26.11C282.81 21.52 281.48 17.02 280.72 14.18H280.39C281.042 18.3166 281.32 22.5035 281.22 26.69V59.23H262.7V0Z" fill="black"/>
<path d="M384.08 0V30.53C384.08 39.29 388.84 44.8 398.43 44.8C407.43 44.8 412.69 39.21 412.69 30.53V0H434.05V33.12C434.05 50.22 421.45 61.23 398.43 61.23C375.41 61.23 362.73 50.05 362.73 32.87V0H384.08Z" fill="black"/>
<path d="M444.73 0H476.35L486.94 30.12C487.93 32.5074 488.658 34.9954 489.11 37.54H489.28C489.741 34.9596 490.465 32.4331 491.44 30L501.62 0H534.07V59.23H514.55V26.69C514.594 22.4949 514.986 18.3106 515.72 14.18H515.3C514.164 18.1643 512.829 22.0892 511.3 25.94L498.45 59.23H478.6L466.5 26.11C464.83 21.52 463.5 17.02 462.75 14.18H462.42C463.072 18.3166 463.35 22.5035 463.25 26.69V59.23H444.73V0Z" fill="black"/>
<path d="M0.51001 74.76H24.2L39.72 111.22C40.591 113.256 41.235 115.383 41.64 117.56H42C42.405 115.383 43.049 113.256 43.92 111.22L59.4 74.76H83.1L54.73 134H28.87L0.51001 74.76Z" fill="black"/>
<path d="M89.1899 134V74.76H110.54V134H89.1899Z" fill="black"/>
<path d="M172.77 122.73H145L140.41 134H117.47L145 74.76H172.69L200.22 134H177.36L172.77 122.73ZM167.6 109.88L163.43 99.62C162.43 97.12 160.01 90.69 159.01 86.86H158.76C157.68 90.69 155.34 97.12 154.34 99.62L150.17 109.88H167.6Z" fill="black"/>
<path d="M278.39 116.8C278.39 125.15 272.55 133.99 255.39 133.99H207.15V74.76H255C269.85 74.76 276.94 80.6 276.94 89.53C276.94 95.53 273.1 100.79 264.59 102.53C273.72 103.88 278.39 108.88 278.39 116.8ZM228.5 87.94V97.87H248.5C253.42 97.87 254.68 95.12 254.68 92.61C254.68 90.1 253.34 87.94 248.5 87.94H228.5ZM256.11 115.05C256.11 111.97 253.78 109.71 249.36 109.71H228.5V120.81H249.36C254.11 120.81 256.11 118 256.11 115.05Z" fill="black"/>
<path d="M287.32 74.76H308.67V117.64H346V134H287.32V74.76Z" fill="black"/>
<path d="M417.12 119.64V134H354.64V74.76H416.53V89.11H376V97.54H415.13V110.71H376V119.64H417.12Z" fill="black"/>
<path d="M33.3801 149.52L28.0001 179C25.7501 191.26 34.0001 194.35 40.8501 194.35C50.7701 194.35 55.1901 187.67 56.6101 180.08L62.0001 149.52H83.3601L77.8501 180.8C74.7601 198.49 64.7501 210.75 40.3101 210.75C19.9601 210.75 2.31014 202.33 6.86014 177.8L12.0001 149.52H33.3801Z" fill="black"/>
<path d="M153.17 165.79H130.48L122.8 208.79H101.53L109.12 165.79H86.27L89.19 149.52H156.09L153.17 165.79Z" fill="black"/>
<path d="M152.76 182.47C152.76 167.71 162.1 147.52 194.97 147.52C214.24 147.52 234.09 154.52 234.09 175.8C234.09 190.56 224.83 210.75 191.96 210.75C172.69 210.75 152.76 203.74 152.76 182.47ZM211.48 176.47C211.48 166.71 203.56 162.95 195.48 162.95C180.71 162.95 175.48 172.71 175.48 181.72C175.48 191.56 183.41 195.32 191.48 195.32C206.23 195.32 211.48 185.56 211.48 176.47Z" fill="black"/>
<path d="M311.67 168.87C311.67 179.38 305.33 191.48 285.31 191.48H261L258 208.75H236.68L247.1 149.52H285.23C296 149.52 311.67 152.44 311.67 168.87ZM288.9 169.79C288.9 164.45 285.06 163.12 280.22 163.12H266L263.42 177.88H278.42C287.23 177.88 288.9 173.3 288.9 169.79Z" fill="black"/>
<path d="M312.43 208.75L322.85 149.52H344.21L333.78 208.75H312.43Z" fill="black"/>
<path d="M399.1 197.49H371.24L364.65 208.75H340.7L378.7 149.52H406.39L423.5 208.75H401.68L399.1 197.49ZM396.1 184.64L393.76 174.38C392.767 170.177 392.042 165.915 391.59 161.62H391.34C389.411 166.021 387.182 170.284 384.67 174.38L378.67 184.64H396.1Z" fill="black"/>
</svg>
