<svg width="97" height="81" viewBox="0 0 97 81" fill="none" xmlns="http://www.w3.org/2000/svg">
<path d="M57.3801 1.4985C57.6469 1.69272 60.0604 1.42283 60.7211 1.52373C61.3818 1.62462 61.7484 2.40151 62.9227 1.79866C63.2618 2.46204 64.284 2.63861 64.5333 2.83787C64.6405 2.92363 64.6181 3.2692 64.8201 3.42054C65.3287 3.79637 66.3634 4.20247 66.9294 3.80898C67.5327 4.86585 68.4902 5.13826 69.657 5.30978L69.9637 5.82434L71.5619 5.93785C72.0505 6.82572 72.639 6.95184 73.5216 7.37055L73.5914 8.03897C74.9727 8.72001 75.5661 10.6874 77.2764 10.8842L77.3313 11.5703L79.0217 12.3976L79.0791 13.0837L79.675 13.3687L79.8171 14.1078C81.0064 14.1658 81.8416 15.1999 82.3926 16.1685C82.5871 16.5141 82.6519 17.18 82.8339 17.3641C83.7465 18.2898 84.2651 19.6342 84.9059 20.9459C85.1676 21.4806 85.4943 21.806 85.5217 21.864C85.766 22.4139 85.6738 22.8931 85.5466 23.443L85.973 23.501C85.9805 25.1204 87.464 25.2692 87.267 27.0903C88.0923 28.122 88.384 29.8927 88.9225 31.4162C89.0073 31.6583 88.6906 33.0381 88.7729 33.6762C88.8278 34.1 89.1893 35.7874 89.3015 36.1658C89.855 38.0222 89.7253 37.9617 89.8201 39.9417C89.8425 40.4185 90.1667 41.1146 90.032 41.7326L90.3836 42.0605L93.6099 42.1438L93.8916 41.6141L96.7514 41.9975C97.624 42.903 95.9311 43.7782 95.779 44.3105C95.6643 44.7166 95.8538 45.4455 95.7142 45.6347C95.6743 45.6902 95.3178 45.7003 95.1233 45.9096C94.6047 46.4646 94.8715 47.2036 94.7094 47.7686C94.5324 48.379 93.7495 50.46 93.3805 50.972C93.0863 51.3781 92.4929 51.0199 92.7148 52.4476L92.2436 52.6267L91.7599 54.3318L91.2986 54.5285L91.2637 55.5955L90.78 55.7771C91.2712 56.6372 90.9844 57.3536 90.022 57.5402C90.0794 57.7294 90.224 57.8858 90.2065 58.1027C90.1442 58.8216 88.4039 62.0023 87.8928 62.5698C86.9005 63.6746 87.4266 63.5485 86.898 64.5801C86.0951 66.149 84.8435 67.105 83.6991 68.2829C83.5969 68.3889 83.3675 68.3435 83.3301 68.399C83.0758 68.7723 83.6118 69.7056 82.3303 69.6702C82.1558 69.9754 81.9364 70.6035 81.7269 70.8255C81.2358 71.3451 80.4155 71.4586 79.8719 71.9757C79.1539 72.6592 78.3735 73.6278 77.5333 74.2761C76.6107 74.9899 76.3764 74.6746 75.5636 75.5549C74.9752 76.1931 74.3094 76.4402 73.549 76.806C73.1875 78.3244 71.5993 78.1227 70.3776 79.0307C70.2529 79.124 70.4399 79.4822 69.647 79.6436C69.1708 79.7395 69.0486 79.8 68.6422 79.906C66.877 80.3676 67.261 79.7622 66.4482 79.6966C65.8922 79.6512 65.3162 80.2843 64.6954 79.7521L64.1943 80.4811C63.4338 80.5971 63.182 80.0674 62.9676 80.0548C62.4764 80.022 60.5142 80.2667 60.2599 80.191C58.8786 79.7849 59.4122 80.1431 58.2054 80.2213C57.7641 80.249 57.4275 79.9236 56.9937 79.9589C56.0014 80.0422 54.4505 80.5593 53.4981 80.476C53.0743 80.4382 52.7501 80.0472 52.4933 80.0397C51.9573 80.0245 50.6383 80.8518 49.7607 80.4558L49.484 80.9906C49.1374 81.0435 48.8133 80.8569 48.4941 80.8367C47.4071 80.761 45.3601 80.0321 44.5024 80.0422C44.2381 80.0447 43.924 80.471 43.5151 80.4684C42.964 80.4684 41.7623 80.2641 41.0268 80.2086C40.2913 80.1532 37.7008 79.7571 37.2669 79.7899C37.1049 79.8025 36.9478 80.1658 36.5314 80.2086C35.8832 80.2742 34.7013 80.0119 34.0282 80.0548C33.5943 80.0825 33.2577 81.0587 32.3028 79.7824C31.6596 80.2515 31.0961 79.6512 30.5501 79.6966C29.7397 79.7622 30.1212 80.3676 28.356 79.906C27.9496 79.8 27.8274 79.7395 27.3512 79.6436C26.7204 79.5175 26.3638 78.7129 25.6159 78.3951C23.9404 77.6863 24.6709 77.9385 23.4392 76.8136C23.0303 76.4402 22.225 76.3318 21.6865 75.8122C21.118 75.2648 21.3524 74.6847 20.3501 74.9344L20.1506 74.4804C18.8815 74.1045 17.8144 72.4347 16.8495 71.6276C16.1464 71.0399 14.8848 71.0651 14.6679 69.6627L13.9947 69.6021C13.9773 68.066 12.3616 67.6498 11.5987 66.8452C10.9804 66.1894 10.9006 64.7315 9.99303 64.5549C10.4269 63.2105 9.64148 63.1827 9.10044 62.5622C8.22779 61.5634 6.79666 58.814 6.87395 57.51L5.99881 56.8668L6.21323 55.7771L5.78938 55.7166C5.5201 54.5512 5.31565 52.9167 4.22609 52.3316L4.20864 51.2419L3.50305 50.8131L3.71747 50.2279C2.92959 50.0816 2.46086 48.9213 2.97697 48.205L2.47582 48.0335C2.27636 47.1456 2.34367 45.8617 1.27655 45.6347L1.21672 43.9271C0.346565 43.7833 0.206941 43.0215 0 42.2724C0.0897578 41.8108 2.57555 41.5157 3.0742 41.6696C3.32104 41.7452 3.45567 42.0757 3.85709 42.1362C4.72475 42.2699 6.05366 42.1312 6.86148 41.8966C6.89639 41.3013 7.14322 40.4614 7.17065 39.9417C7.21054 39.1775 7.04848 37.4824 7.31775 36.7106C8.12058 34.4052 7.91364 33.656 8.22779 31.4137C8.38487 30.2963 9.06055 27.7007 9.72376 27.0878C9.62901 25.8821 10.3895 25.3802 10.7285 24.8253C10.9554 24.4519 10.9679 23.9071 10.9804 23.4758L11.7184 23.4657C11.6635 23.2387 11.504 23.1 11.4666 22.8276C11.3568 22.0254 12.616 20.2194 13.0124 19.3543C13.5385 18.2041 13.2617 18.3504 14.077 17.4146C14.5806 16.837 14.6554 16.0525 14.9796 15.543C15.5331 14.6753 17.0814 14.2087 17.1737 14.1052C17.2559 14.0144 17.1637 13.6058 17.3183 13.3687C17.418 13.2148 19.7143 11.1339 19.9337 10.98C20.3276 10.7051 21.3898 10.2435 21.6441 10.0644C21.7139 10.014 22.2375 8.90919 22.5491 8.57624C23.6886 7.37055 25.3416 5.70832 27.0246 5.82182L27.3312 5.30474C28.5006 5.13322 29.4555 4.8608 30.0614 3.79889C30.7246 4.07887 31.5897 3.84177 32.1682 3.41297C32.3701 3.26163 32.3477 2.91859 32.4574 2.83031C32.784 2.56798 33.901 2.57807 34.0431 1.75578C35.215 2.42421 35.6089 1.61705 36.2696 1.51616C37.232 1.36986 38.4886 1.6221 39.4934 1.53382L40.0369 0.777108C41.3858 1.16555 42.7521 -0.224268 44.2057 0.0330127C44.9587 0.166698 44.6944 0.275159 45.749 0.280204C47.811 0.292815 49.9327 0.466858 51.9897 0.423978C52.254 0.418933 52.5083 0.0809375 52.7776 0.0330127C54.271 -0.234357 55.4828 1.22357 56.9463 0.777108L57.3702 1.48841L57.3801 1.4985ZM55.3357 2.81517L53.4881 3.30703L52.234 2.58816L51.491 3.05732L50.4937 2.52006L49.4964 3.05732L48.5315 2.55285L47.5043 3.05732L46.507 2.52006L45.7166 3.01696L44.5149 2.76977L43.5126 3.30703L41.7748 2.77481L41.493 3.30451C40.2688 3.72322 39.1344 4.37399 38.0324 3.34739C37.6783 3.41297 37.3966 3.81655 37.1423 3.93258C36.2646 4.33111 34.9008 3.93258 34.088 4.35381C33.6517 4.58334 33.4323 5.06259 33.1705 5.19123C32.6195 5.46365 32.223 5.02223 32.0186 5.82939C29.4879 6.85851 25.7206 8.0415 23.696 9.98371C23.2996 10.3646 23.2622 11.0431 22.8334 11.3811C22.2649 11.8301 22.038 11.9663 21.4421 12.496C20.7291 13.1291 19.3976 13.5327 18.9414 14.2541C18.6472 14.7207 18.7743 15.263 18.4627 15.5354C18.0014 15.939 17.1986 15.7977 16.6999 16.5267C15.8921 17.7021 14.7751 19.097 14.6031 20.4666C13.8676 20.739 13.5933 22.2499 13.2792 23.1504C13.1321 23.5742 13.0797 24.124 12.97 24.573C12.2494 24.7899 12.601 25.186 12.4215 25.4483C12.3666 25.529 12.1173 25.471 12.04 25.5467C11.484 26.094 12.0649 26.7296 11.9627 27.1105C11.9328 27.224 10.7211 28.1018 10.5715 28.8963C10.0529 31.6508 9.74121 34.274 9.39963 36.9124C9.33231 37.427 9.11041 37.9718 8.96082 38.4712L9.44451 38.6326L9.47443 39.238L8.73393 39.6315L8.99073 40.9961L8.46216 41.266L8.72894 42.391C9.65644 41.6569 9.67638 42.1715 10.3944 42.338C10.7261 42.4162 11.4391 42.0958 11.8306 42.1337C12.1347 42.1639 12.3866 42.4464 12.7182 42.3884C12.8578 41.8007 12.4489 41.2735 12.4489 40.7489C12.4489 40.3554 12.6907 40.0426 12.7107 39.7299C12.8877 36.6955 12.6284 33.8906 13.4637 30.942L13.9723 30.6267C14.3712 29.8725 15.4583 25.814 15.7824 25.5416C16.1589 25.2213 16.5503 24.0913 16.9044 23.2891C17.3681 22.2398 17.8718 21.2612 18.4028 20.2648C19.0486 19.0541 20.1132 18.2898 20.941 17.291C21.133 17.0589 21.3873 16.8899 21.5867 16.6654L21.4945 15.7725C21.5119 15.3765 22.973 15.2983 23.4392 15.0183C24.1099 14.6173 24.9352 13.4065 25.2169 12.6549L26.1594 12.5843L26.3289 12.1101C27.401 12.4127 27.7476 11.4492 28.5529 10.859C29.3134 10.3015 29.9791 10.2738 30.57 9.60536L31.3005 10.1048C31.4526 10.1048 32.3976 8.13482 33.5445 8.10708C34.9781 8.07176 35.3421 7.42604 36.3145 6.81311C36.4367 6.73744 38.8776 6.0564 39.0197 6.07154C39.5707 6.12955 40.3636 6.56087 41.0043 6.59114L41.3035 6.06397C42.241 6.11441 43.2907 5.56454 44.1234 5.43338C45.6643 5.19123 46.9832 5.81425 48.5091 5.83191C50.035 5.84957 51.2043 5.16601 52.8798 5.43842C53.6228 5.5595 56.2781 6.57853 56.4751 6.57853C56.9314 6.57853 57.5921 6.05136 58.2279 6.04631C58.9609 6.04127 59.5992 6.78284 60.4469 6.59619C60.943 7.49919 61.8481 7.57738 62.8005 7.89015L62.8653 8.31643C64.1444 7.62531 65.0095 9.19421 65.7102 10.0972L66.1988 9.67598L66.9244 9.8475L67.1189 10.3091C68.1037 9.98371 69.1334 11.7569 69.6047 12.0798C69.7966 12.211 70.3053 12.0621 70.6568 12.1605C71.8635 12.5061 72.4769 13.8732 73.5041 14.7182C73.5839 14.7838 73.539 15.0309 73.6088 15.089C73.8856 15.3109 74.9253 15.3008 75.3167 15.5152L75.5536 15.7902L75.3217 16.6427C75.8777 16.562 75.7954 17.016 76.0448 17.291C78.2189 19.667 78.8248 20.5373 80.1736 23.4632C80.4853 24.1392 81.1984 24.5402 80.8144 25.4584L81.7444 26.0259L82.5348 29.363L83.0484 29.6657L83.0384 30.7805L83.7839 30.7856C83.8811 31.1059 83.5944 31.4742 83.6143 31.681C83.6866 32.463 84.0307 33.1667 84.093 34.2387C84.2102 36.2238 84.5543 38.8622 84.5518 40.7514C84.5518 41.1928 84.2401 41.5611 84.28 42.0101L84.6466 42.3607C85.6015 41.8259 86.4068 42.8601 87.3966 41.9445L88.1471 42.3884C88.7405 41.8411 88.3865 41.1348 88.0125 40.5068L88.2867 39.7551L87.5786 38.9807L88.0349 37.9844C87.3119 35.6033 87.1897 32.9599 86.9877 30.5712L86.5165 30.3896L86.2821 28.1775L85.0455 27.113C85.2574 26.6262 85.3796 25.9553 84.9632 25.5467C84.7986 25.3852 84.4247 25.6274 84.4845 24.7799L84.0232 24.5932C84.4147 23.0369 83.0509 22.1667 83.0035 20.734L82.4026 20.4666L81.6696 18.1763L80.5701 17.6466L80.0116 15.9415C79.5653 15.8835 78.8721 15.8709 78.543 15.5354C78.2139 15.1999 78.366 14.7661 78.179 14.3903C77.7327 13.4923 76.1644 13.0433 75.5586 12.501C74.7183 11.7468 73.9604 10.6118 73.3096 9.98371C71.315 8.06924 67.4654 6.74248 64.9871 5.82939C64.6206 5.43842 63.6856 4.80531 63.0872 4.43453C62.0525 3.79637 61.4442 4.41182 61.0178 4.27562C60.3945 4.07887 59.6515 3.8342 59.2077 3.29946C58.0134 4.16463 56.7942 3.81403 55.5152 3.30451L55.3456 2.81517H55.3357ZM59.5742 8.3467L55.7196 8.52074C54.8071 7.61017 52.7377 7.50171 51.486 7.54711C50.2344 7.59252 48.8881 7.97591 47.4943 7.84223C46.9333 7.78926 46.5045 7.41847 46.2651 7.41343C45.1207 7.39577 43.4802 7.60008 42.3108 7.87502C41.8944 7.97339 41.4481 8.49804 41.2786 8.50813C40.7774 8.5384 39.7627 8.3013 39.0147 8.324C38.4138 8.34166 38.0174 8.8209 37.4041 8.33409L37.3941 9.08323C35.7934 8.8436 34.9033 10.2132 33.4348 10.1224C33.2179 12.1479 30.7869 11.6787 29.6699 12.2412C29.1987 12.4783 28.4009 13.6209 28.1316 13.8353C27.8897 14.027 26.7503 14.3096 26.3015 14.6324C25.581 15.147 25.1571 16.2467 24.1922 16.7789C22.422 17.7551 22.0605 18.6203 21.0831 20.1917C20.9385 20.4237 20.3925 20.5549 20.0833 20.9534C19.3428 21.8993 18.3056 24.3006 17.8269 25.4811C17.6923 25.8115 17.767 26.2605 17.595 26.5152C17.1338 27.1963 15.9694 27.451 16.478 29.1309L15.9445 29.4159C16.4182 30.5056 15.6378 31.0706 15.2713 31.9761C14.067 34.9525 14.5333 37.3084 14.4111 40.199C14.3812 40.9002 13.9997 41.5258 14.4685 42.3884L15.3361 41.9369L16.0891 42.3279L16.842 41.9344L17.5526 42.3708C18.1061 41.6443 19.0012 42.1135 19.809 42.1337C20.38 42.1463 20.951 42.1286 21.5668 42.1463C23.6611 42.2018 26.2492 41.8234 28.0942 42.6079C31.3429 41.7957 34.7961 42.2447 37.9999 41.9167C38.7529 42.8652 39.1743 41.324 40.017 42.3077C40.9096 41.6897 42.3607 42.8929 43.0139 42.8879C43.4677 42.8853 44.4126 42.5246 45.0135 42.4944C45.3351 42.4767 45.7316 42.6962 46.2502 42.6356C46.9932 42.5499 48.0379 41.8234 48.7434 41.8713C49.2795 41.9092 49.5912 42.3985 50.0001 42.5372C50.5635 42.7315 51.6481 42.3985 52.1991 42.4464C53.6253 42.57 53.2114 42.8778 54.7373 42.4868C55.7695 42.222 56.8665 42.4288 57.7292 41.8638C58.4423 42.3783 58.7714 42.1236 59.6889 42.0605C61.332 41.947 63.1496 41.8562 64.7228 42.3783C64.9522 41.5359 64.8973 42.0807 65.4608 42.1286C66.6003 42.2245 67.6823 41.9369 68.7445 42.6054C70.2679 41.9243 72.2375 42.1412 73.9255 42.1412C75.7107 42.1412 77.9272 41.5989 79.4531 42.3657L80.1636 41.9319L81.1285 42.3582C81.8242 41.546 81.7444 42.3228 82.5348 42.3834C83.0035 41.5182 82.622 40.8952 82.5921 40.194C82.5348 38.8571 82.7517 37.2781 82.7791 35.9514C82.809 34.5162 81.5649 32.1729 81.141 30.9092C80.8717 30.1071 80.6623 27.5494 80.1661 27.0021C79.9542 26.765 79.5727 26.717 79.4082 26.5026C79.3409 26.4143 79.0043 24.7395 78.7973 24.3889L78.2837 24.0761L78.2513 22.7544C77.5632 22.5501 77.3687 21.4176 76.8102 20.8097C75.9401 19.8663 75.1671 19.0592 74.3693 18.1133C74.0851 17.7778 73.6662 17.0841 73.539 16.6705L72.9681 16.8824C72.0331 16.6427 71.2702 14.7938 70.8264 14.5063C70.5346 14.3171 69.1982 14.0952 68.8716 13.8353C68.5799 13.6033 67.8294 12.5288 67.3233 12.2311C67.0441 12.0672 66.7972 12.3194 66.5654 12.2538C66.1565 12.1378 64.0995 11.3281 63.9599 11.1162C63.7978 10.8716 63.8602 10.3898 63.6058 10.2132C63.3241 10.0165 62.8554 10.1603 62.5088 10.0619C61.8979 9.88534 60.8333 8.88901 59.8335 8.97729L59.5792 8.34922L59.5742 8.3467ZM48.3769 43.6496C48.4492 44.4921 46.8885 44.8477 46.2477 44.825C45.9684 44.8149 45.6643 44.4341 45.2454 44.3987C43.6472 44.2676 42.0665 44.5904 40.3212 44.3407C37.6808 43.9624 35.4418 43.6698 33.0433 44.0532C31.9612 44.2272 30.7445 43.9145 29.8021 43.9119C28.8048 43.9069 27.7501 44.7973 26.8076 43.8842C23.2672 43.9044 19.7218 43.7228 16.1065 43.8918C15.2738 43.9296 15.7076 43.9119 15.0544 44.1112C13.4412 44.6005 11.2322 42.9761 9.8559 44.3584C8.82369 43.6748 7.18062 44.0582 5.87664 43.642L2.99941 44.028C3.25372 44.3559 3.47313 44.7746 3.62272 45.163C4.06653 46.3057 4.82947 47.814 4.50285 48.9289C5.43284 49.2543 6.03372 50.7904 5.98385 51.8195C7.29032 52.7099 7.2629 54.5109 7.7815 55.8376C7.95603 56.2866 8.45219 56.4682 8.66412 56.8844L8.46715 57.8934C9.30489 58.0245 8.9658 59.094 9.28743 59.5001C9.37969 59.6186 9.75866 59.4042 9.91325 60.2215C10.1052 61.243 10.0703 60.9177 10.8058 61.7374C10.8881 61.8308 11.1125 61.7954 11.1674 61.861C11.5962 64.6079 13.9449 66.3508 15.6403 68.1846C16.9243 69.5744 18.2832 71.1483 19.7043 72.2733C21.5942 73.7716 23.5265 74.9697 25.3765 76.2687C25.6084 76.4302 25.8428 76.6143 26.1694 76.8312C27.6105 77.7922 27.1642 77.8856 29.0666 77.9461C29.3558 77.9562 29.6624 78.1378 29.812 78.1277C30.0015 78.1151 30.1985 77.6283 30.7969 77.6863C31.1883 77.7241 31.5897 78.2715 32.1582 78.3371C33.2528 78.4657 34.7238 78.2891 35.8283 78.2715C36.9328 78.2538 37.596 78.3749 38.7704 77.9385L39.0347 78.4707C40.4633 78.2059 41.8969 78.2917 43.2682 78.8844C44.6994 77.6207 45.016 78.6877 46.3175 78.9172C46.9234 79.0231 47.8683 78.6952 48.5016 78.6877C50.025 78.67 50.9799 79.3107 52.4933 78.1933L53.735 78.8844C55.1287 78.2362 56.4801 78.2488 57.9661 78.4707L58.2328 77.936C60.8408 78.4985 63.9524 78.7406 66.4556 77.6863C67.0241 78.1454 68.7395 78.1176 69.4102 77.9158C69.6745 77.8376 70.3726 77.0582 70.8214 76.8337C72.6564 75.908 75.2918 73.8927 76.8651 72.4827C77.3064 72.0867 78.3136 71.5216 78.4981 71.3426C80.0465 69.8443 81.3829 68.1341 82.9087 66.5904C83.4747 66.0179 83.5819 65.6546 83.8362 65.3898C84.9283 64.2573 85.6015 63.6897 85.8358 61.856L87.1648 60.7966C86.9728 59.5581 88.0648 59.3891 88.0823 58.0699L88.5311 57.8757C88.4812 57.0912 88.5111 56.3976 89.279 56.11C89.2716 54.7429 89.6929 53.8172 90.3786 52.7099C90.8972 51.875 90.9296 51.2999 91.3185 50.3893C91.5255 49.9051 92.4455 48.9592 92.4754 48.7876C92.5103 48.5985 92.2934 48.3488 92.3632 47.9351C92.4655 47.3247 94.1684 44.0406 94.0038 43.8993C93.0788 44.0759 92.256 43.6647 91.3859 43.6269C91.2413 43.6219 90.0445 43.6774 89.9348 43.7026C87.7731 44.1944 85.9231 43.859 83.6617 44.0153C83.1182 44.0532 82.5148 44.2676 81.9289 44.1642L81.6546 43.6294C80.0365 44.0179 78.1915 43.8237 76.4761 43.8237C74.1848 43.8237 71.5045 43.695 69.4052 44.3559C69.0885 44.4568 67.8768 44.0406 67.4405 44.0128C65.4509 43.8918 63.1571 43.8287 61.2347 43.8918C58.8163 43.9699 56.5524 44.3861 54.291 44.4694C53.4283 44.4996 52.997 44.3861 52.2465 44.3861C51.1694 44.3861 50.0549 45.0596 48.9055 44.3735L48.8806 43.6471H48.3844L48.3769 43.6496Z" fill="#01CE53"/>
</svg>
