<svg width="98" height="81" viewBox="0 0 98 81" fill="none" xmlns="http://www.w3.org/2000/svg">
<path d="M57.9702 1.49341C58.2397 1.68763 60.678 1.41774 61.3455 1.51863C62.013 1.61952 62.3833 2.39639 63.5697 1.79356C63.9123 2.45692 64.9451 2.63348 65.1969 2.83274C65.3053 2.9185 65.2826 3.26405 65.4866 3.41539C66.0005 3.79121 67.0458 4.19729 67.6176 3.80382C68.2272 4.86065 69.1945 5.13306 70.3733 5.30457L70.6831 5.81912L72.2978 5.93262C72.7915 6.82046 73.3859 6.94658 74.2776 7.36527L74.3482 8.03368C75.2499 8.59615 75.9804 9.43859 76.7713 10.1574C77.1089 10.4626 76.9502 11.0932 78.0812 10.8662L78.124 11.5674C78.5824 11.7843 79.2298 12.1778 79.6026 12.5006C80.0711 12.9042 80.5573 14.0165 80.6379 14.1048C80.6757 14.1452 81.3684 14.2259 81.7109 14.4176C83.1366 15.2196 83.0132 16.5943 83.6958 17.351C84.6052 18.3624 85.1165 19.6008 85.7815 20.9427C86.046 21.4774 86.3759 21.8028 86.4037 21.8608C86.6505 22.4107 86.5573 22.8899 86.4288 23.4398L86.8596 23.4978C86.8772 24.6227 87.1795 24.9279 88.0586 25.4828L88.1669 27.087C89.0007 28.1211 89.2954 29.8892 89.8395 31.4127C89.9251 31.6548 89.6052 33.0345 89.6883 33.6726C89.7437 34.0964 90.109 35.7838 90.2223 36.1621C90.7815 38.0185 90.6505 37.958 90.7463 39.938C90.7689 40.4147 91.0964 41.1108 90.9604 41.7288L91.3155 42.0567L94.575 42.1399L94.8596 41.6102L97.7488 41.9936C98.6304 42.8991 96.9201 43.7744 96.7665 44.3066C96.6506 44.7126 96.842 45.4416 96.701 45.6308C96.6607 45.6862 96.3005 45.6963 96.104 45.9057C95.58 46.4606 95.8496 47.1996 95.6858 47.7646C95.507 48.375 94.7161 50.4559 94.3433 50.9679C94.046 51.374 93.4465 51.0158 93.6707 52.4434L93.1946 52.6225L92.706 54.3276L92.24 54.5243L92.2047 55.5912L91.716 55.7728C92.2123 56.6329 91.9226 57.3493 90.9503 57.5359C91.3029 58.0984 90.4793 60.2801 90.1241 60.7442C89.7689 61.2083 89.0737 62.2601 88.7966 62.5653C87.7941 63.6701 88.3256 63.544 87.7916 64.5756C86.9805 66.1444 85.716 67.1004 84.5598 68.2783C84.4565 68.3842 84.2248 68.3388 84.187 68.3943C83.9301 68.7676 84.4717 69.7009 83.1769 69.6655C82.8218 71.2672 81.192 71.0553 80.5472 72.3165C79.6353 72.7352 79.1164 73.6734 78.3305 74.2737C77.3986 74.9876 77.1618 74.6723 76.3406 75.5525C75.7461 76.1907 75.0736 76.4379 74.3053 76.8036C73.9401 78.322 72.3355 78.1202 71.1013 79.0282C70.9753 79.1216 71.1642 79.4797 70.3632 79.6412C69.8821 79.737 69.7587 79.7975 69.3481 79.9035C67.5647 80.3651 67.9526 79.7597 67.1315 79.6941C66.5698 79.6487 65.9879 80.2818 65.3607 79.7496L64.8544 80.4786C64.0861 80.5946 63.8317 80.0649 63.6151 80.0523C63.1163 80.0195 62.2146 80.0372 61.6402 80.0346C60.6931 80.0321 60.6201 79.9438 59.8317 80.1128C58.8468 80.3247 57.3102 79.9716 56.1641 80.0901C55.5798 80.1507 54.615 80.524 54.0483 80.476C53.62 80.4382 53.2926 80.0472 53.0331 80.0397C52.4916 80.0245 51.1591 80.8519 50.2724 80.4559L49.9928 80.9906C49.6427 81.0435 49.3152 80.8569 48.9928 80.8367C47.8946 80.7611 45.8265 80.0321 44.96 80.0422C44.693 80.0447 44.3756 80.471 43.9625 80.4685C43.4059 80.4685 42.1917 80.2642 41.4487 80.2087C40.7056 80.1532 38.0884 79.7572 37.6502 79.79C37.4864 79.8026 37.3277 80.1658 36.9071 80.2087C36.2522 80.2742 35.0582 80.0119 34.3781 80.0548C33.9398 80.0826 33.5997 81.0587 32.635 79.7824C31.9851 80.2515 31.4158 79.6512 30.8642 79.6966C30.0456 79.7622 30.431 80.3676 28.6476 79.906C28.237 79.8001 28.1136 79.7395 27.6324 79.6437C26.9952 79.5176 26.635 78.713 25.8793 78.3951C24.1866 77.6864 24.9246 77.9386 23.6803 76.8137C23.2672 76.4404 22.4536 76.3319 21.9095 75.8123C21.3352 75.265 21.5719 74.6849 20.5593 74.9346L20.3578 74.4806C19.2092 74.362 18.786 73.1085 18.0757 72.4628C16.9397 71.4286 15.2621 71.2369 14.8187 69.6605L14.1386 69.6C14.121 68.0639 12.4888 67.6477 11.718 66.8431C11.0933 66.1873 11.0127 64.7294 10.0958 64.5529C10.5341 63.2085 9.74063 63.1808 9.19402 62.5603C8.3124 61.5615 6.86655 58.8122 6.94464 57.5082L6.0605 56.865L6.27712 55.7754L5.84891 55.7148C5.57687 54.5495 5.37032 52.9151 4.26955 52.3299L4.25192 51.2403L3.64738 50.9704C3.49121 50.6703 3.48113 50.3197 3.33 50.0195C2.98995 49.341 2.40304 49.1493 3.00758 48.2035L2.50128 48.032C2.29976 47.1441 2.36778 45.8603 1.28968 45.6333L1.22923 43.9257C0.350129 43.7819 0.20907 43.0202 0 42.2711C0.0906808 41.8095 2.60203 41.5144 3.10582 41.6683C3.35519 41.7439 3.49121 42.0743 3.89675 42.1349C4.77333 42.2686 6.11591 42.1298 6.93204 41.8953C6.95975 41.3126 7.22675 40.4374 7.24439 39.9405C7.31492 38.074 7.44086 36.8103 7.85396 34.9918C8.19653 33.4885 8.11845 32.7722 8.30988 31.4127C8.46858 30.2928 9.1512 27.6999 9.82123 27.087C9.72551 25.8813 10.4938 25.3794 10.8364 24.8245C11.0656 24.4512 11.0782 23.9064 11.0908 23.4751L11.8364 23.465C11.7809 23.238 11.6197 23.0992 11.5819 22.8268C11.4661 21.9819 12.7583 20.2062 13.1487 19.3587C13.6777 18.206 13.388 18.3599 14.2218 17.414C15.1462 16.3673 14.9346 14.9851 16.6198 14.2511C17.713 13.7744 17.6475 13.164 18.4989 12.3594C18.6601 12.2055 20.043 11.0478 20.1387 10.9797C20.5367 10.7048 21.6122 10.2432 21.8667 10.0641C21.9322 10.0187 22.4057 8.99971 22.6626 8.70965C23.1916 8.11439 23.8087 8.21024 23.708 7.3678C25.1513 6.91631 25.6475 5.56185 27.3025 5.82164L27.6123 5.30457C28.7937 5.13306 29.7584 4.86065 30.3705 3.79877C31.0405 4.07875 31.9146 3.84165 32.499 3.41286C32.703 3.26153 32.6803 2.9185 32.7912 2.83022C33.1211 2.5679 34.2496 2.57799 34.3932 1.75573C35.5771 2.42413 35.9751 1.617 36.6426 1.51611C37.6149 1.36982 38.8844 1.62205 39.8995 1.53377L40.4487 0.777084C41.8114 1.16551 43.1918 -0.224261 44.6603 0.0330117C45.421 0.166692 45.154 0.27515 46.2195 0.280195C48.3026 0.292806 50.4462 0.466844 52.5243 0.423965C52.7913 0.41892 53.0482 0.080935 53.3203 0.0330117C54.8291 -0.23435 56.0533 1.22353 57.5319 0.777084L57.9601 1.48837L57.9702 1.49341ZM55.9047 2.81004L54.0382 3.30188L52.7712 2.58303L52.0205 3.05218L51.013 2.51493L50.0054 3.05218L49.0306 2.54772L47.9928 3.05218L46.9852 2.51493L46.1867 3.01182L44.9726 2.76464L43.96 3.30188L42.2043 2.76968L41.9197 3.29936C40.6854 3.71806 39.5343 4.36881 38.4235 3.34224C38.0658 3.40782 37.7811 3.81138 37.5242 3.92741C36.5872 4.34863 35.1615 3.88453 34.2698 4.42934C33.7332 4.75724 33.3781 5.72832 32.5342 5.33988L32.3504 5.82416C30.1488 6.66913 27.7685 7.42581 25.708 8.71974C24.0682 9.74883 23.0354 11.2849 21.6651 12.4905C21.1286 12.9622 20.3881 13.1943 19.9145 13.5121C19.4863 13.7996 19.2697 14.41 18.6525 14.4024L18.7886 15.4088C18.1739 15.9108 17.3578 15.83 16.8767 16.5237C16.053 17.7142 15.058 19.0132 14.7558 20.4609C14.0152 20.7434 13.7381 22.2442 13.4208 23.1472C13.2721 23.5709 13.2192 24.1208 13.1084 24.5697C12.3804 24.7866 12.7356 25.1826 12.5542 25.445C12.4988 25.5257 12.2469 25.4677 12.1689 25.5433C11.6071 26.0907 12.194 26.7263 12.0908 27.1071C12.0026 27.4401 11.5341 27.4199 11.3955 27.5586C10.8439 28.1186 10.6147 29.5891 10.592 30.3811L10.1109 30.5652C10.0983 32.699 9.77337 34.8354 9.50133 36.9112C9.43332 37.4258 9.20914 37.9706 9.058 38.47L9.54667 38.6314L9.5769 39.2368L8.82878 39.6303L9.08823 40.9948L8.55422 41.2647L8.82374 42.3896C9.76078 41.6556 9.78093 42.1702 10.5064 42.3367C11.0152 42.4552 11.9396 41.8322 12.4837 42.3568C13.2344 41.9205 12.582 41.3782 12.582 40.7476C12.582 40.3541 12.8288 40.0414 12.8464 39.7286C13.0253 36.6943 12.7658 33.8896 13.6046 30.941L14.1286 30.6409L14.1009 29.6647C15.1538 29.1023 15.1714 27.5082 15.4863 26.4816C15.8011 25.4551 16.1009 25.793 16.4233 24.3932C16.5845 23.6869 18.1362 21.1066 18.5946 20.2592C19.247 19.0485 20.3226 18.2842 21.1588 17.2854C21.3528 17.0533 21.6097 16.8844 21.8112 16.6599L21.718 15.767C21.7357 15.371 23.2118 15.2928 23.6828 15.0128C24.3604 14.6118 25.1941 13.4011 25.4788 12.6494L26.4309 12.5788L26.6022 12.1046C27.8843 12.4527 28.5695 10.7098 29.7408 10.2381C29.9347 10.16 30.1514 10.3617 30.2043 10.3138C30.2672 10.2558 30.3881 9.48147 31.0808 9.62524L31.6249 10.0994C31.7786 10.1019 32.7307 8.12952 33.8919 8.10178C35.3403 8.06647 35.7081 7.42076 36.6904 6.80785C36.8139 6.73218 39.2799 6.05117 39.4235 6.0663C40.0607 6.12936 40.7257 6.70444 41.4386 6.58337L41.7308 6.05873C42.6779 6.10918 43.7384 5.55932 44.5797 5.42816C46.1364 5.18603 47.4689 5.80903 49.0104 5.82668C50.552 5.84434 51.7334 5.1608 53.4261 5.43321C54.1767 5.55428 56.8594 6.57328 57.0584 6.57328C57.5193 6.57328 58.1868 6.04612 58.8291 6.04108C59.5697 6.03603 60.2145 6.77758 61.071 6.59093C61.5722 7.49391 62.4866 7.5721 63.4488 7.88486L63.5143 8.31113C64.8065 7.62002 65.6806 9.18888 66.3884 10.0919L66.8821 9.67064L67.6151 9.84215L67.8116 10.3037C68.8065 9.97835 69.8469 11.7515 70.3229 12.0744C70.5169 12.2055 71.0307 12.0567 71.3859 12.1551C72.6051 12.5006 73.2247 13.8677 74.2625 14.7127C74.3431 14.7782 74.2978 15.0254 74.3683 15.0834C74.6479 15.3054 75.6983 15.2953 76.0938 15.5097L76.3331 15.7846L76.0988 16.6372C76.6605 16.5565 76.5774 17.0105 76.8293 17.2854C79.0258 19.6614 79.6379 20.5316 81.0006 23.4574C81.3155 24.1334 82.0359 24.5344 81.648 25.4525L82.5875 26.02L83.386 29.357L83.9049 29.6597L83.8948 30.7745L84.648 30.7796C84.7462 31.0999 84.4565 31.4682 84.4767 31.675C84.5497 32.4569 84.8974 33.1606 84.9603 34.2326C85.0787 36.2176 85.4263 38.8559 85.4238 40.7451C85.4238 41.1865 85.1089 41.5548 85.1492 42.0037L85.5195 42.3543C86.4843 41.8196 87.2979 42.8537 88.2979 41.9381L89.0561 42.3821C89.6556 41.8347 89.2979 41.1285 88.9201 40.5004L89.1619 39.6303C88.0057 39.431 88.7513 38.8635 88.8974 38.4347C88.9478 38.2859 88.9654 38.1345 88.9427 37.9782C88.177 35.587 88.1316 32.8781 87.8772 30.5652L87.4062 30.3811L87.1694 28.169L85.92 27.1046C86.1341 26.6178 86.2576 25.9469 85.8369 25.5383C85.6707 25.3769 85.2928 25.619 85.3533 24.7715L84.8873 24.5849C85.2827 23.0286 83.9049 22.1584 83.857 20.7258L83.25 20.4584L82.5094 18.1682L81.3986 17.6385L80.8343 15.9335C80.3835 15.8754 79.6832 15.8628 79.3507 15.5274C79.0182 15.1919 79.1719 14.7581 78.9829 14.3823C78.5321 13.4843 76.9477 13.0354 76.3356 12.4931C75.4867 11.7389 74.721 10.6039 74.0635 9.97583C72.0484 8.06142 68.1592 6.7347 65.6554 5.82164C65.2851 5.43069 64.3405 4.7976 63.736 4.42682C62.6906 3.78868 62.076 4.40412 61.6453 4.26792C61.0156 4.07118 60.2649 3.82652 59.8166 3.2918C58.61 4.15694 57.3783 3.80634 56.0861 3.29684L55.9148 2.80752L55.9047 2.81004ZM60.1868 8.3414L56.2926 8.51543C55.3707 7.60489 53.28 7.49643 52.0155 7.54183C50.751 7.58723 49.3908 7.97062 47.9827 7.83694C47.416 7.78397 46.9827 7.4132 46.7409 7.40815C45.5847 7.3905 43.9273 7.5948 42.7459 7.86973C42.3252 7.9681 41.8744 8.49273 41.7031 8.50282C41.1968 8.53309 40.1716 8.29599 39.4159 8.3187C38.8088 8.33635 38.4083 8.81558 37.7887 8.32878L37.7786 9.0779C36.1615 8.83828 35.2622 10.2079 33.7786 10.1171C33.5645 12.1425 31.1085 11.6708 29.975 12.2358C29.5015 12.4729 28.6904 13.618 28.4209 13.8299C28.1236 14.0644 26.7609 14.3848 26.3554 14.6244C25.9498 14.864 25.7105 15.7645 25.4511 16.0268C24.8087 16.6826 23.9498 16.7179 23.174 17.5326C22.3251 18.4229 21.8893 19.2376 21.2974 20.186C21.1513 20.4181 20.5996 20.5492 20.2873 20.9477C19.5392 21.8936 18.4913 24.2948 18.0077 25.4752C17.8717 25.8056 17.9472 26.2546 17.7734 26.5094C17.3074 27.1904 16.1311 27.4451 16.645 29.125L16.1059 29.41C16.5266 30.7392 15.3528 31.9449 14.98 33.2918C14.3049 35.7333 14.6575 37.8193 14.5568 40.1927C14.5266 40.8939 14.1412 41.5194 14.6147 42.3821L15.4913 41.9306L16.252 42.3215L17.0127 41.9281L17.7306 42.3644C18.2898 41.638 19.1941 42.1071 20.0102 42.1273C21.5971 42.1651 26.5241 41.7818 27.7962 42.15C28.0178 42.2131 28.174 42.5511 28.378 42.599L30.7005 42.092L31.1614 41.2546C30.7357 39.88 30.4964 38.3943 30.7509 36.9693C30.9776 35.7031 31.2823 34.3965 31.5468 33.2161C31.6224 32.8781 32.2345 32.4695 32.0078 31.7961L32.7383 31.7784C32.7408 31.3067 32.7584 30.83 33.0279 30.4239C33.2622 30.0733 33.5821 30.0935 33.6955 29.9598C33.8945 29.7278 34.1942 28.8929 34.3076 28.8072C34.4436 28.7037 34.7836 28.7693 35.0078 28.6356C35.2547 28.4868 35.3529 28.1942 35.693 28.053C36.1867 27.8487 37.0607 27.8865 37.5368 27.6293C37.7711 27.5031 37.8995 27.1172 38.1993 27.0315C39.5116 26.6531 41.5545 26.9659 42.892 27.3089C43.6452 27.5006 46.0029 28.3077 46.4865 28.7542C47.0457 29.2687 47.3958 30.2348 48.3656 30.5299C48.348 30.2423 48.5016 30.0658 48.4966 29.7681C48.4689 27.5536 47.9172 25.2785 47.416 23.2884C47.1137 22.0903 46.9525 21.0713 46.6401 20.0221C46.5343 19.6715 46.6981 19.1544 46.5621 18.9551C46.5318 18.9097 45.9802 18.9955 45.8794 18.2439C45.8316 17.8933 45.96 17.7167 46.0935 17.4292L45.3479 17.018L45.5898 16.168L44.8542 15.7518C45.2421 15.0103 44.7736 14.4932 44.5897 13.7668C45.4638 12.7756 46.96 14.1048 46.5923 15.2474C47.4009 15.5097 47.1918 16.0722 47.4134 16.728C47.4941 16.9701 47.7283 17.1114 47.8417 17.3308L47.62 18.1505L48.3454 18.5768C48.3177 20.0044 49.0029 21.717 49.3354 23.1295C49.4739 23.7197 49.0381 24.6706 49.8795 24.4764L50.1213 23.6188L50.6427 23.3111C50.7812 22.4813 50.8366 22.2871 50.3858 21.5783L51.1137 21.1697C51.2674 19.9212 52.0785 18.2691 52.6931 17.076C53.1515 16.1857 53.7687 15.936 54.3606 15.3432C54.6049 15.0986 54.7687 14.1653 55.1616 13.7441C55.3959 13.4944 55.7032 13.4717 55.8694 13.3179C56.1415 13.0656 56.2548 12.3518 57.0659 12.3594C57.3505 12.6267 58.2574 12.8109 58.4009 12.9219C58.4992 13 58.6654 13.6331 58.9375 13.7895C58.2473 14.6597 58.6352 15.149 58.6982 16.0444C58.7385 16.6397 58.3581 16.8188 58.9652 17.5376L58.5067 18.5541C59.1994 19.1922 58.6906 19.0989 58.5067 19.6135C58.0231 20.9553 57.4891 22.2896 56.8845 23.5381C56.3732 24.5975 55.9526 25.7552 54.945 26.3883L54.9248 27.2509L58.8342 27.4981C59.3783 27.5788 59.5294 28.2523 60.3052 27.7957L64.3808 30.5223C64.877 32.0306 65.5244 33.0345 65.7184 34.6916C65.8292 35.64 66.1793 36.6968 66.2675 37.736C66.3229 38.3843 65.8871 38.4448 65.7864 38.7727C65.6579 39.1863 65.9199 39.484 65.9022 39.7387C65.8368 40.73 65.3531 41.4539 65.2549 42.3871C65.7007 42.5082 65.3733 41.8297 65.6201 41.8953C65.8267 41.9508 65.9677 42.1248 66.3758 42.1475C67.1541 42.1904 69.464 42.6494 69.6252 42.6116C69.8595 42.5561 70.0131 42.1248 70.4086 42.1349C73.6353 42.2282 77.3255 41.6052 80.2751 42.3695L80.993 41.9356L81.9679 42.3619C82.6706 41.5497 82.59 42.3266 83.3885 42.3871C83.8621 41.522 83.4767 40.899 83.4465 40.1978C83.3885 38.861 83.6077 37.282 83.6354 35.9553C83.6656 34.5201 82.4087 32.1769 81.9804 30.9133C81.7084 30.1112 81.4968 27.5536 80.9956 27.0063C80.7814 26.7692 80.3961 26.7212 80.2298 26.5068C80.1618 26.4186 79.8217 24.7438 79.6127 24.3932L79.0963 24.088L79.0787 22.7461L78.4615 22.4762C78.7789 21.7372 76.9577 20.5921 76.7084 20.1961C76.3935 19.6916 76.0686 18.9375 75.7109 18.4204C75.4943 18.1051 74.2726 17.4519 74.3028 16.675L73.726 16.8869C72.7814 16.6473 72.0106 14.7984 71.5622 14.5109C71.2675 14.3217 69.9174 14.0998 69.5874 13.84C69.2927 13.6079 68.5345 12.5334 68.0232 12.2358C67.741 12.0718 67.4917 12.3241 67.2574 12.2585C66.8443 12.1425 64.7662 11.3328 64.6252 11.1209C64.4614 10.8763 64.5244 10.3945 64.2675 10.218C63.9854 10.0238 63.5118 10.1675 63.1617 10.0641C62.4211 9.8472 61.469 8.95683 60.4564 8.98205L60.1994 8.35401L60.1868 8.3414ZM50.887 28.0076C52.2901 27.1475 54.0558 25.4223 54.7208 23.9013C54.9198 23.4448 54.9072 22.9681 55.1112 22.5267C55.3858 21.9365 56.0986 21.2756 56.3707 20.5089C56.4513 20.2819 56.8694 17.9235 56.8568 17.7823C56.8216 17.3838 55.9752 16.6624 56.9022 15.9839L56.678 15.144C55.7989 15.6056 55.3908 16.6851 54.7838 17.409C54.5495 17.689 54.1641 17.6612 53.9475 18.085C53.7309 18.5087 53.7636 19.1267 53.5999 19.5025C53.3354 20.1204 52.5848 20.9402 52.4387 21.6187C52.2069 22.6906 52.7233 24.1636 51.1414 24.4915C51.678 25.7855 50.6452 26.6935 50.8845 28.0051L50.887 28.0076ZM47.6729 32.7394C47.3605 32.4342 46.9827 31.5539 46.5998 31.1655C44.6502 29.1931 41.6149 28.4894 38.9222 28.8652C37.698 29.4428 36.3454 29.7984 35.2723 30.6636C35.0179 30.8679 35.0859 31.3521 34.562 31.3219L34.2647 32.8882C33.9398 33.1303 33.5065 33.7382 33.3025 34.2326C33.0481 34.8405 32.5141 37.5822 32.5116 38.2203C32.504 39.3478 33.771 40.9721 33.0053 42.1298L38.3882 41.9129L38.9222 42.3291C39.9348 41.3933 42.5091 42.8916 43.4537 42.884C44.5494 42.8764 47.0935 42.5284 48.0507 42.1878C48.416 42.0592 48.8669 41.8423 49.2447 41.8675C50.5016 42.9016 51.5016 42.3367 52.7334 42.4451C54.1742 42.5687 53.7561 42.8764 55.2976 42.4855C56.3405 42.2206 57.4488 42.4275 58.3203 41.8625C59.3455 42.6444 59.1188 42.0289 59.615 41.9205C60.0382 41.8272 61.605 42.1651 62.0836 42.1349C62.3304 42.1197 63.5093 41.7969 63.6226 41.638C63.9602 40.8712 63.8619 40.112 64.0433 39.2847C64.1415 38.8433 64.4438 38.6113 64.5017 37.9807C64.6075 36.8331 64.2045 36.6641 64.0383 35.9049C63.872 35.1456 63.9325 33.7988 63.6906 33.2237C63.4891 32.7444 62.8468 32.5427 62.9551 31.8112L62.2423 31.7734C62.3934 31.1327 61.8644 30.8048 61.2901 30.5728C61.0433 30.4719 60.6554 30.603 60.4967 30.4946C60.4236 30.4466 60.3632 29.8564 59.9627 29.642C59.7536 29.5285 57.1364 29.0241 56.8165 29.0014C56.0155 28.9509 53.9979 29.3797 53.411 29.8968C53.1414 30.1364 53.0634 30.5854 52.7964 30.7972C52.4185 31.0949 51.5419 31.4076 51.1414 31.6548C50.8669 31.8263 50.6377 32.6662 50.1339 32.9235C49.7535 33.1177 49.1641 33.1001 48.7409 33.3069C48.6024 33.3069 47.7862 32.8453 47.6754 32.7369L47.6729 32.7394ZM48.8744 43.6432C48.9475 44.4856 47.3706 44.8413 46.7233 44.8186C46.4411 44.8085 46.1338 44.4276 45.7107 44.3923C44.0986 44.2612 42.494 44.579 40.7358 44.3343C39.7207 44.1931 38.0255 43.4061 37.6602 43.3758C36.9247 43.3153 35.7912 43.4692 34.6526 43.3834C33.363 43.2876 32.2899 43.9913 31.1111 42.9244C30.3 43.7945 29.169 44.1048 28.0405 44.362L27.0833 43.8803C23.5065 43.9005 19.9246 43.7189 16.2722 43.8879C15.4308 43.9257 15.8691 43.908 15.2092 44.1073C13.5794 44.5966 11.3477 42.9723 9.95725 44.3545C8.91442 43.6709 7.25446 44.0543 5.93707 43.6382L3.03025 44.0241C3.28718 44.352 3.50884 44.7707 3.65998 45.1591C4.10834 46.3017 4.87913 47.81 4.54915 48.9249C5.48871 49.2502 6.09576 50.7863 6.04538 51.8154C7.36529 52.7057 7.33759 54.5067 7.86152 55.8334C8.03784 56.2823 8.53911 56.4639 8.75321 56.8801L8.55422 57.889C9.40057 58.0202 9.058 59.0896 9.38294 59.4957C9.47614 59.6143 9.85901 59.3999 10.0152 60.2171C10.2091 61.2386 10.1739 60.9132 10.917 61.733C11.0001 61.8263 11.2268 61.791 11.2822 61.8566C11.7155 64.6033 14.0883 66.3462 15.8011 68.1799C17.0984 69.5697 18.4712 71.1436 19.9069 72.2685C21.8163 73.7668 23.7684 74.9649 25.6375 76.2638C25.8717 76.4253 26.1085 76.6094 26.4385 76.8263C27.8944 77.7873 27.4435 77.8806 29.3655 77.9411C29.6576 77.9512 29.9675 78.1328 30.1186 78.1227C30.31 78.1101 30.509 77.6233 31.1136 77.6813C31.509 77.7192 31.9146 78.2665 32.4889 78.3321C33.5947 78.4607 35.0809 78.2842 36.1967 78.2665C37.3126 78.2489 37.9826 78.3699 39.1691 77.9336L39.4361 78.4658C40.9247 78.1656 42.3152 78.2716 43.7132 78.8794C45.159 77.6158 45.4789 78.6827 46.7938 78.9122C47.4059 79.0182 48.3606 78.6903 49.0004 78.6827C50.5394 78.665 51.5042 79.3057 53.0331 78.1883L54.2876 78.8794C55.6956 78.2312 57.0609 78.2438 58.5621 78.4658L58.8317 77.9311C61.4664 78.4935 64.61 78.7357 67.139 77.6813C67.8922 78.264 67.9501 77.9563 68.6353 77.9361C70.5597 77.8756 70.1038 77.7822 71.5622 76.8213C73.5094 75.5399 75.93 74.0089 77.6555 72.4779C78.1013 72.0819 79.119 71.5169 79.3054 71.3378C80.8696 69.8396 82.2197 68.1295 83.7613 66.5858C84.3331 66.0133 84.4414 65.6501 84.6984 65.3852C85.8016 64.2527 86.4817 63.6852 86.7185 61.8515L88.0611 60.7922C87.8671 59.5537 88.9704 59.3847 88.9881 58.0656L89.4415 57.8714C89.3911 57.0869 89.4213 56.3933 90.1971 56.1058C89.9452 54.4587 91.2349 53.2657 91.8143 51.9592C92.0485 51.4295 92.0586 50.8065 92.3407 50.2163C92.5397 49.8001 93.3936 48.9526 93.4264 48.7836C93.4616 48.5944 93.2425 48.3447 93.313 47.9311C93.4163 47.3207 95.1367 44.0367 94.9705 43.8954C94.036 44.072 93.2047 43.6609 92.3256 43.623C91.0485 43.5701 89.4012 44.1325 88.0435 44.1376C87.784 44.1376 87.5246 43.9156 87.2777 43.9055C85.7361 43.845 84.3054 44.1577 82.7714 44.1628L82.4943 43.6281C80.8595 44.0165 78.9955 43.8223 77.2625 43.8223C74.9477 43.8223 72.2398 43.6936 70.1189 44.3545C69.9249 44.415 66.7763 44.0367 66.1264 44.0115C64.6478 43.9534 63.3758 43.8425 61.8619 43.8904C59.4186 43.9686 57.1314 44.3847 54.8468 44.468C53.9752 44.4983 53.5394 44.3848 52.7812 44.3848C51.6931 44.3848 50.5671 45.0582 49.4059 44.3721L49.3807 43.6457H48.8795L48.8744 43.6432Z" fill="#01CE53"/>
</svg>
