<svg width="356" height="262" viewBox="0 0 356 262" fill="none" xmlns="http://www.w3.org/2000/svg">
<g clip-path="url(#clip0_491_598)">
<path d="M241.61 90.0361H34.1572C15.3064 90.0361 0 74.7588 0 55.9751V34.0922C0 15.2773 15.3064 0 34.1572 0H241.61C260.429 0 275.767 15.2773 275.767 34.0922V55.9751C275.767 74.7588 260.46 90.0674 241.61 90.0674V90.0361ZM34.1572 3.94456C17.502 3.94456 3.95207 17.4688 3.95207 34.0922V55.9751C3.95207 72.5986 17.502 86.1228 34.1572 86.1228H241.61C258.265 86.1228 271.815 72.5986 271.815 55.9751V34.0922C271.815 17.4688 258.265 3.94456 241.61 3.94456H34.1572Z" fill="white"/>
<path d="M321.843 176.159H34.1572C15.3064 176.159 0 160.85 0 142.066V120.184C0 101.4 15.3064 86.0913 34.1572 86.0913H321.843C340.662 86.0913 355.969 101.369 355.969 120.184V142.066C355.969 160.85 340.662 176.159 321.843 176.159ZM34.1572 90.0359C17.502 90.0359 3.95207 103.56 3.95207 120.184V142.066C3.95207 158.69 17.502 172.214 34.1572 172.214H321.843C338.498 172.214 352.048 158.69 352.048 142.066V120.184C352.048 103.56 338.498 90.0359 321.843 90.0359H34.1572Z" fill="white"/>
<path d="M43.5355 135.774H34.0631V155.153H27.8213V108.538H45.1038C57.3364 108.538 60.567 115.363 60.567 122.188C60.567 127.447 57.8696 133.145 50.0595 134.929L62.0412 155.153H55.0153L43.5668 135.774H43.5355ZM34.0631 130.515H44.3823C51.6278 130.515 53.9802 126.852 53.9802 122.188C53.9802 117.523 51.5337 113.797 44.3823 113.797H34.0631V130.546V130.515Z" fill="white"/>
<path d="M67.2793 131.83C67.2793 116.615 75.6853 107.411 88.6393 107.411C101.593 107.411 109.937 116.615 109.937 131.83C109.937 147.045 101.531 156.249 88.6393 156.249C75.748 156.249 67.2793 146.731 67.2793 131.83ZM103.381 131.83C103.381 119.871 97.9863 112.671 88.6393 112.671C79.2923 112.671 73.8347 119.902 73.8347 131.83C73.8347 143.757 79.2923 150.989 88.6393 150.989C97.9863 150.989 103.381 143.695 103.381 131.83Z" fill="white"/>
<path d="M151.935 142.349C151.935 148.328 148.328 155.153 136.472 155.153H118.845V108.538H135.092C147.387 108.538 150.618 115.425 150.618 120.935C150.618 125.318 148.109 129.544 142.777 131.047C148.36 132.018 151.904 136.087 151.904 142.349H151.935ZM125.118 113.797V128.762H135.124C143.153 128.762 144.47 124.629 144.47 121.405C144.47 117.742 142.683 113.797 135.124 113.797H125.118ZM145.756 141.754C145.756 137.434 143.184 134.021 136.817 134.021H125.118V149.893H136.159C143.467 149.893 145.756 145.949 145.756 141.754Z" fill="white"/>
<path d="M157.863 131.83C157.863 116.615 166.269 107.411 179.223 107.411C192.177 107.411 200.521 116.615 200.521 131.83C200.521 147.045 192.115 156.249 179.223 156.249C166.332 156.249 157.863 146.731 157.863 131.83ZM193.965 131.83C193.965 119.871 188.57 112.671 179.223 112.671C169.876 112.671 164.419 119.902 164.419 131.83C164.419 143.757 169.876 150.989 179.223 150.989C188.57 150.989 193.965 143.695 193.965 131.83Z" fill="white"/>
<path d="M205.79 131.705C205.79 117.398 213.161 107.411 227.025 107.411C238.41 107.411 244.307 114.111 245.499 123.753L239.132 124.41C238.222 117.398 233.925 112.733 226.711 112.733C217.584 112.733 212.377 120.341 212.377 131.642C212.377 142.943 217.301 150.801 226.836 150.801C233.486 150.801 238.159 146.418 239.477 139.437L245.53 140.502C243.742 149.299 238.097 156.249 226.868 156.249C212.408 156.249 205.821 145.229 205.821 131.705H205.79Z" fill="white"/>
<path d="M276.707 113.797H251.332V108.538H283.357V114.33L257.041 149.893H284.266V155.153H250.454V149.392L276.707 113.829V113.797Z" fill="white"/>
<path d="M316.574 141.691H297.503L292.704 155.153H286.274L303.965 108.538H310.144L327.834 155.153H321.404L316.605 141.691H316.574ZM314.723 136.432L308.199 118.243C307.791 117.179 307.478 116.083 307.07 114.705H306.944C306.537 116.083 306.223 117.21 305.815 118.243L299.291 136.432H314.692H314.723Z" fill="white"/>
<path d="M24.1826 45.7693C24.1826 30.5546 32.5886 21.3506 45.5426 21.3506C58.4966 21.3506 66.8399 30.5546 66.8399 45.7693C66.8399 60.984 58.4339 70.188 45.5426 70.188C32.6513 70.188 24.1826 60.6709 24.1826 45.7693ZM60.2845 45.7693C60.2845 33.8104 54.8896 26.61 45.5426 26.61C36.1957 26.61 30.738 33.8417 30.738 45.7693C30.738 57.6969 36.1957 64.9285 45.5426 64.9285C54.8896 64.9285 60.2845 57.6342 60.2845 45.7693Z" fill="white"/>
<path d="M75.748 22.4775H91.0545C104.479 22.4775 113.23 31.8693 113.23 45.7066C113.23 59.5439 104.542 69.0609 90.929 69.0609H75.748V22.4775ZM90.8036 63.8328C100.872 63.8328 106.58 55.6932 106.58 45.7066C106.58 35.72 100.997 27.7369 90.929 27.7369H81.9898V63.8328H90.8036Z" fill="white"/>
<path d="M144.094 27.7369H118.719V22.4775H150.743V28.2692L124.428 63.8328H151.653V69.0922H117.841V63.3319L144.094 27.7683V27.7369Z" fill="white"/>
<path d="M158.898 69.0922V22.4775H165.14V69.0922H158.898Z" fill="white"/>
<path d="M207.044 63.8328V69.0922H177.654V22.4775H206.573V27.7369H183.896V42.576H205.476V47.8354H183.896V63.8641H207.044V63.8328Z" fill="white"/>
<path d="M239.226 27.737H213.851V22.4775H245.875V28.2692L219.559 63.8328H246.785V69.0922H212.973V63.3319L239.226 27.7683V27.737ZM226.272 12.6475H233.235V19.66H226.272V12.6475Z" fill="white"/>
<path d="M23.9951 197.166H30.4564C36.1023 197.166 39.772 201.11 39.772 206.933C39.772 212.756 36.1336 216.763 30.3937 216.763H23.9951V197.166ZM30.331 214.572C34.5653 214.572 36.9805 211.159 36.9805 206.964C36.9805 202.769 34.6281 199.388 30.3937 199.388H26.6298V214.572H30.331Z" fill="white"/>
<path d="M50.123 208.624H46.1396V216.763H43.5049V197.166H50.7817C55.9257 197.166 57.2744 200.046 57.2744 202.895C57.2744 205.117 56.1452 207.497 52.8518 208.248L57.9017 216.763H54.9533L50.1544 208.624H50.123ZM46.1396 206.401H50.4681C53.5105 206.401 54.5142 204.867 54.5142 202.895C54.5142 200.922 53.4792 199.357 50.4681 199.357H46.1396V206.401Z" fill="white"/>
<path d="M60.0967 206.964C60.0967 200.546 63.641 196.696 69.0986 196.696C74.5562 196.696 78.0692 200.578 78.0692 206.964C78.0692 213.351 74.5249 217.233 69.0986 217.233C63.6724 217.233 60.0967 213.225 60.0967 206.964ZM75.2776 206.964C75.2776 201.924 73.0193 198.887 69.0673 198.887C65.1152 198.887 62.8569 201.924 62.8569 206.964C62.8569 212.004 65.1465 215.041 69.0673 215.041C72.988 215.041 75.2776 211.973 75.2776 206.964Z" fill="white"/>
<path d="M95.4458 202.957C95.4458 206.495 92.8425 208.749 88.7649 208.749H84.4365V216.763H81.8018V197.166H88.7649C92.8425 197.166 95.4458 199.42 95.4458 202.957ZM92.6856 202.957C92.6856 200.766 91.0546 199.357 88.514 199.357H84.4365V206.526H88.514C91.0546 206.526 92.6856 205.117 92.6856 202.926V202.957Z" fill="white"/>
<path d="M105.42 197.166H108.588L116.9 211.441C117.464 212.412 117.809 213.132 118.123 213.946H118.186C118.123 213.257 118.092 212.537 118.092 211.347V197.166H120.444V216.763H117.276L108.964 202.488C108.4 201.517 108.055 200.86 107.741 199.983H107.678C107.741 200.672 107.772 201.392 107.772 202.581V216.763H105.42V197.166Z" fill="white"/>
<path d="M124.146 203.145C124.146 199.764 126.153 197.885 129.133 197.885C132.112 197.885 134.088 199.795 134.088 203.145C134.088 206.494 132.081 208.435 129.133 208.435C126.184 208.435 124.146 206.494 124.146 203.145ZM131.987 203.145C131.987 200.703 130.92 199.451 129.133 199.451C127.345 199.451 126.247 200.734 126.247 203.145C126.247 205.555 127.313 206.87 129.133 206.87C130.952 206.87 131.987 205.587 131.987 203.145Z" fill="white"/>
<path d="M140.173 216.763H136.942V213.507H140.173V216.763Z" fill="white"/>
<path d="M142.808 214.697C144.376 213.539 146.885 211.535 149.332 209.187C151.778 206.839 152.594 205.243 152.594 202.957C152.594 200.672 151.308 199.294 149.081 199.294C146.854 199.294 145.474 200.641 145.474 202.738C145.474 203.239 145.568 203.802 145.693 204.491L143.215 204.241C143.09 203.677 143.027 203.208 143.027 202.707C143.027 199.326 145.348 197.134 149.238 197.134C153.127 197.134 155.197 199.2 155.197 202.926C155.197 205.618 153.848 207.966 150.869 210.721C149.363 212.099 148.014 213.194 146.132 214.509H155.385V216.732H142.776V214.697H142.808Z" fill="white"/>
<path d="M265.322 214.696C266.891 213.538 269.4 211.535 271.846 209.187C274.293 206.839 275.108 205.242 275.108 202.957C275.108 200.671 273.822 199.294 271.595 199.294C269.368 199.294 267.988 200.64 267.988 202.738C267.988 203.238 268.082 203.802 268.208 204.491L265.73 204.24C265.605 203.677 265.542 203.207 265.542 202.706C265.542 199.325 267.863 197.134 271.752 197.134C275.642 197.134 277.743 199.2 277.743 202.925C277.743 205.618 276.394 207.966 273.415 210.721C271.909 212.098 270.56 213.194 268.678 214.509H277.931V216.731H265.322V214.696Z" fill="white"/>
<path d="M280.44 207.183C280.44 201.016 282.981 197.165 287.843 197.165C292.704 197.165 295.245 201.016 295.245 207.183C295.245 213.35 292.704 217.17 287.843 217.17C282.981 217.17 280.44 213.319 280.44 207.183ZM292.767 207.183C292.767 202.299 291.167 199.231 287.843 199.231C284.518 199.231 282.918 202.299 282.918 207.183C282.918 212.067 284.518 215.103 287.843 215.103C291.167 215.103 292.767 212.035 292.767 207.183Z" fill="white"/>
<path d="M297.347 214.696C298.915 213.538 301.424 211.535 303.871 209.187C306.317 206.839 307.133 205.242 307.133 202.957C307.133 200.671 305.847 199.294 303.62 199.294C301.393 199.294 300.013 200.64 300.013 202.738C300.013 203.238 300.107 203.802 300.232 204.491L297.754 204.24C297.629 203.677 297.566 203.207 297.566 202.706C297.566 199.325 299.887 197.134 303.777 197.134C307.666 197.134 309.767 199.2 309.767 202.925C309.767 205.618 308.419 207.966 305.439 210.721C303.933 212.098 302.585 213.194 300.703 214.509H309.956V216.731H297.347V214.696Z" fill="white"/>
<path d="M312.057 214.696C313.625 213.538 316.134 211.535 318.581 209.187C321.027 206.839 321.843 205.242 321.843 202.957C321.843 200.671 320.557 199.294 318.33 199.294C316.103 199.294 314.723 200.64 314.723 202.738C314.723 203.238 314.817 203.802 314.942 204.491L312.464 204.24C312.339 203.677 312.276 203.207 312.276 202.706C312.276 199.325 314.597 197.134 318.487 197.134C322.376 197.134 324.477 199.2 324.477 202.925C324.477 205.618 323.129 207.966 320.149 210.721C318.643 212.098 317.295 213.194 315.413 214.509H324.666V216.731H312.057V214.696Z" fill="white"/>
<path d="M22.4893 251.732C22.4893 245.314 26.0336 241.463 31.4912 241.463C36.9488 241.463 40.4618 245.345 40.4618 251.732C40.4618 258.118 36.9174 262 31.4912 262C26.0649 262 22.4893 257.993 22.4893 251.732ZM37.6702 251.732C37.6702 246.692 35.4119 243.655 31.4598 243.655C27.5078 243.655 25.2494 246.692 25.2494 251.732C25.2494 256.772 27.5391 259.809 31.4598 259.809C35.3805 259.809 37.6702 256.741 37.6702 251.732Z" fill="white"/>
<path d="M44.7275 241.901H51.1889C56.8347 241.901 60.5045 245.846 60.5045 251.669C60.5045 257.492 56.866 261.499 51.1261 261.499H44.7275V241.901ZM51.0634 259.308C55.2978 259.308 57.7129 255.895 57.7129 251.7C57.7129 247.505 55.3605 244.124 51.1261 244.124H47.3623V259.308H51.0634Z" fill="white"/>
<path d="M74.0231 244.124H63.3588V241.901H76.8147V244.343L65.7426 259.308H77.1911V261.53H62.9824V259.088L74.0231 244.124Z" fill="white"/>
<path d="M80.7979 261.53V241.933H83.4326V261.53H80.7979Z" fill="white"/>
<path d="M101.625 259.307V261.53H89.2666V241.933H101.436V244.155H91.9013V250.385H100.966V252.608H91.9013V259.339H101.625V259.307Z" fill="white"/>
<path d="M115.708 244.124H105.043V241.901H118.499V244.343L107.427 259.308H118.876V261.53H104.667V259.088L115.708 244.124ZM110.25 237.769H113.167V240.712H110.25V237.769Z" fill="white"/>
<path d="M124.898 261.53H121.667V258.274H124.898V261.53Z" fill="white"/>
<path d="M136.472 253.391H132.488V261.53H129.854V241.933H137.13C142.274 241.933 143.623 244.813 143.623 247.662C143.623 249.884 142.494 252.264 139.2 253.015L144.25 261.53H141.302L136.503 253.391H136.472ZM132.488 251.168H136.817C139.859 251.168 140.863 249.634 140.863 247.662C140.863 245.689 139.828 244.124 136.817 244.124H132.488V251.168Z" fill="white"/>
<path d="M147.042 251.732C147.042 245.314 150.586 241.463 156.044 241.463C161.502 241.463 165.014 245.345 165.014 251.732C165.014 258.118 161.47 262 156.044 262C150.618 262 147.042 257.993 147.042 251.732ZM162.223 251.732C162.223 246.692 159.965 243.655 156.013 243.655C152.06 243.655 149.802 246.692 149.802 251.732C149.802 256.772 152.092 259.809 156.013 259.809C159.933 259.809 162.223 256.741 162.223 251.732Z" fill="white"/>
<path d="M183.207 256.146C183.207 258.65 181.67 261.53 176.714 261.53H169.312V241.933H176.149C181.325 241.933 182.673 244.844 182.673 247.161C182.673 249.008 181.638 250.792 179.38 251.418C181.732 251.825 183.238 253.547 183.238 256.177L183.207 256.146ZM171.915 244.124V250.417H176.118C179.505 250.417 180.039 248.663 180.039 247.317C180.039 245.783 179.286 244.124 176.118 244.124H171.915ZM180.603 255.895C180.603 254.079 179.537 252.639 176.839 252.639H171.915V259.307H176.557C179.631 259.307 180.603 257.648 180.603 255.895Z" fill="white"/>
<path d="M186.249 251.732C186.249 245.314 189.793 241.463 195.251 241.463C200.709 241.463 204.222 245.345 204.222 251.732C204.222 258.118 200.677 262 195.251 262C189.825 262 186.249 257.993 186.249 251.732ZM201.43 251.732C201.43 246.692 199.172 243.655 195.22 243.655C191.268 243.655 189.009 246.692 189.009 251.732C189.009 256.772 191.299 259.809 195.22 259.809C199.14 259.809 201.43 256.741 201.43 251.732Z" fill="white"/>
<path d="M206.982 251.669C206.982 245.658 210.088 241.463 215.922 241.463C220.721 241.463 223.198 244.281 223.7 248.351L221.003 248.632C220.626 245.69 218.807 243.717 215.765 243.717C211.907 243.717 209.743 246.911 209.743 251.669C209.743 256.428 211.813 259.746 215.828 259.746C218.619 259.746 220.595 257.899 221.128 254.956L223.669 255.395C222.916 259.089 220.532 262.031 215.828 262.031C209.743 262.031 206.982 257.398 206.982 251.7V251.669Z" fill="white"/>
<path d="M237.343 244.124H226.648V241.901H240.135V244.343L229.063 259.308H240.511V261.53H226.303V259.088L237.343 244.124Z" fill="white"/>
<path d="M254.69 255.864H246.66L244.653 261.53H241.955L249.389 241.933H251.992L259.426 261.53H256.728L254.721 255.864H254.69ZM253.905 253.641L251.177 246.002C251.02 245.564 250.863 245.095 250.706 244.5H250.643C250.487 245.063 250.33 245.533 250.173 246.002L247.444 253.641H253.905Z" fill="white"/>
<path d="M265.416 261.53H262.186V258.274H265.416V261.53Z" fill="white"/>
<path d="M268.866 251.732C268.866 245.314 272.411 241.463 277.868 241.463C283.326 241.463 286.839 245.345 286.839 251.732C286.839 258.118 283.294 262 277.868 262C272.442 262 268.866 257.993 268.866 251.732ZM284.047 251.732C284.047 246.692 281.789 243.655 277.837 243.655C273.885 243.655 271.626 246.692 271.626 251.732C271.626 256.772 273.916 259.809 277.837 259.809C281.757 259.809 284.047 256.741 284.047 251.732Z" fill="white"/>
<path d="M297.754 253.391H293.77V261.53H291.136V241.933H298.413C303.557 241.933 304.905 244.813 304.905 247.662C304.905 249.884 303.776 252.264 300.483 253.015L305.501 261.53H302.553L297.754 253.391ZM293.77 251.168H298.099C301.141 251.168 302.145 249.634 302.145 247.662C302.145 245.689 301.11 244.124 298.099 244.124H293.77V251.168Z" fill="white"/>
<path d="M308.293 251.732C308.293 245.752 311.524 241.463 317.326 241.463C322.753 241.463 324.478 245.22 324.823 247.412L322.219 247.756C321.937 246.097 320.745 243.686 317.232 243.686C313.217 243.686 310.959 247.005 310.959 251.763C310.959 256.24 312.998 259.777 317.264 259.777C322.094 259.777 322.815 255.708 322.815 253.829V253.485H317.075V251.262H325.168V261.499H323.254L322.909 258.337C322.062 260.466 319.804 261.969 316.887 261.969C311.524 261.969 308.293 257.617 308.293 251.7V251.732Z" fill="white"/>
</g>
<defs>
<clipPath id="clip0_491_598">
<rect width="356" height="262" fill="white"/>
</clipPath>
</defs>
</svg>
