<svg width="1063" height="337" viewBox="0 0 1063 337" fill="none" xmlns="http://www.w3.org/2000/svg">
<path d="M188.322 161.842H152.992L115.906 87.6702H105.301L121.209 119.453H89.4263V130.059H110.638C115.218 130.059 119.04 131.574 122.036 134.57C125.032 137.566 126.547 141.354 126.547 145.968C126.547 150.582 125.032 154.37 122.036 157.366C119.04 160.362 115.252 161.877 110.638 161.877H84.1578L4.68286 2.92676H82.4017C86.9814 2.92676 90.8037 4.44187 93.7995 7.43767C96.7953 10.4335 98.3104 14.2213 98.3104 18.8355C98.3104 23.4497 96.7953 27.2376 93.7995 30.2334C90.8037 33.2292 87.0159 34.7443 82.4017 34.7443H68.2835V87.7391H78.8893V70.0741C78.8893 62.4297 81.4031 56.0938 86.3961 51.1008C91.3891 46.1077 97.725 43.5939 105.369 43.5939C112.325 43.5939 119.109 45.7634 125.755 50.1366C132.401 54.5098 137.394 59.9848 140.665 66.5618L188.357 161.946L188.322 161.842Z" fill="#5DF19F"/>
<path d="M304.917 161.842H264.285V119.453H253.679V135.362C253.679 143.592 251.027 150.375 245.724 155.678C240.421 160.981 233.638 163.633 225.408 163.633C218.005 163.633 210.704 161.326 203.611 156.643C196.483 151.994 191.111 146.071 187.461 138.909C179.92 124.067 179.748 111.843 186.945 102.167C194.141 92.5254 206.951 87.6702 225.442 87.6702H243.107V77.0643H156.573L140.665 45.2812H246.654L304.952 161.842H304.917ZM236.014 119.453H220.105L225.408 130.059H236.014V119.453Z" fill="#5DF19F"/>
<path d="M347.307 87.6702H336.701L352.61 119.453H320.827V130.059H342.038C346.618 130.059 350.44 131.574 353.436 134.57C356.432 137.566 357.947 141.354 357.947 145.968C357.947 150.582 356.432 154.37 353.436 157.366C350.44 160.362 346.653 161.877 342.038 161.877H315.558L257.26 45.3157H299.649V87.7046H310.255V70.0397C310.255 62.3953 312.769 56.0593 317.762 51.0663C322.755 46.0733 329.091 43.5596 336.735 43.5596C343.691 43.5596 350.475 45.7289 357.121 50.1021C363.767 54.4753 368.76 59.9504 372.031 66.5274L398.511 119.522H363.181L347.272 87.7391L347.307 87.6702Z" fill="#5DF19F"/>
<path d="M504.5 161.842V119.453H493.894V131.815C493.894 141.009 490.898 148.585 484.872 154.611C478.881 160.602 471.271 163.633 462.077 163.633C452.882 163.633 444.239 160.637 435.39 154.611C426.575 148.619 419.86 141.009 415.246 131.815L389.626 80.5765C384.22 69.7296 383.325 60.8455 386.975 53.8897C390.625 46.934 397.994 43.4561 409.047 43.4561C418 43.4561 426.54 45.7976 434.667 50.4463C442.793 55.0949 448.681 61.0177 452.331 68.2145L456.739 77.0297H467.345V34.6408H446.133C441.554 34.6408 437.731 33.1257 434.735 30.1299C431.74 27.1341 430.225 23.3462 430.225 18.732C430.225 14.1178 431.74 10.33 434.735 7.33416C437.731 4.33835 441.519 2.82324 446.133 2.82324H467.345L546.82 161.773H504.431L504.5 161.842ZM467.414 119.453H463.867C460.802 119.453 457.772 118.454 454.776 116.457C451.781 114.46 449.508 111.912 447.993 108.847L432.084 77.0641H421.478L440.038 114.15C442.38 118.73 445.823 122.552 450.369 125.548C454.914 128.544 459.391 130.059 463.867 130.059H467.414V119.453Z" fill="#5DF19F"/>
<path d="M562.764 130.059H605.152C609.732 130.059 613.554 131.574 616.55 134.57C619.546 137.566 621.061 141.354 621.061 145.968C621.061 150.582 619.546 154.37 616.55 157.366C613.554 160.362 609.767 161.877 605.152 161.877H592.79C582.563 161.877 572.44 158.537 562.488 151.891C552.537 145.245 544.961 136.774 539.796 126.547L516.828 80.6112C511.422 69.7643 510.389 60.8802 513.729 53.9244C517.069 46.9686 523.99 43.4907 534.493 43.4907C545.546 43.4907 556.428 47.0031 567.068 53.9933C577.708 61.018 585.697 69.8677 591 80.5768L610.421 119.419H573.335C573.335 107.883 570.925 97.2775 566.104 87.6358L560.801 77.03H550.195L555.498 87.6358C560.319 97.2775 562.729 107.883 562.729 119.419V130.025L562.764 130.059Z" fill="#5DF19F"/>
<path d="M600.056 54.4756C604.051 47.1754 611.936 43.5254 623.713 43.5254C635.489 43.5254 647.025 47.1754 658.32 54.4756C669.614 61.7757 678.085 71.073 683.767 82.3676L704.978 124.756C710.626 136.051 711.452 145.348 707.458 152.648C703.463 159.949 695.578 163.599 683.801 163.599C672.024 163.599 660.489 159.949 649.194 152.648C637.9 145.348 629.429 136.051 623.747 124.756L602.536 82.3676C596.888 71.073 596.062 61.7757 600.056 54.4756ZM661.694 130.059H672.3L645.82 77.0646H635.214L661.694 130.059Z" fill="#5DF19F"/>
<path d="M851.497 288.975L772.022 130.025H750.81C750.535 130.025 750.259 130.025 749.984 130.059H739.412V119.488H771.195L755.287 87.6705H765.892L781.801 119.488H817.131L790.617 66.4933C787.345 59.8818 782.352 54.4067 775.706 50.0679C769.06 45.6947 762.242 43.5254 755.287 43.5254C747.642 43.5254 741.306 46.0391 736.313 51.0321C731.32 56.0251 728.806 62.3611 728.806 70.0056V87.6705H718.201V45.2816H675.812L734.109 161.877H760.59C761.175 161.877 761.726 161.877 762.277 161.808H772.022V204.197H761.416L757.008 195.382C753.358 188.185 747.47 182.297 739.343 177.614C731.217 172.965 722.677 170.658 713.724 170.658C702.636 170.658 695.302 174.136 691.652 181.057C688.001 188.013 688.862 196.897 694.303 207.744L719.888 258.948C724.502 268.142 731.217 275.752 740.032 281.744C748.882 287.77 757.766 290.765 766.719 290.765C775.672 290.765 783.489 287.77 789.48 281.744C795.506 275.752 798.502 268.142 798.502 258.948V246.586H809.108V288.975H851.497ZM772.022 257.192H768.475C763.999 257.192 759.488 255.711 754.977 252.681C750.431 249.685 746.988 245.897 744.612 241.317L726.086 204.197H736.692L752.566 236.014C754.116 239.079 756.389 241.593 759.384 243.59C762.38 245.587 765.41 246.586 768.475 246.586H772.022V257.192Z" fill="#5DF19F"/>
<path d="M848.915 161.843L810.072 84.1237C804.184 72.3471 803.737 62.6365 808.764 54.992C813.757 47.3476 823.054 43.5254 836.587 43.5254C846.607 43.5254 856.249 46.349 865.547 51.9963C874.844 57.6435 881.662 64.8404 886.035 73.5523C892.853 86.8441 893.955 97.8287 889.306 106.506C884.658 115.149 875.326 119.488 861.311 119.488H854.252V130.094H914.306L930.215 161.877H848.983L848.915 161.843ZM864.789 77.0646H854.183V87.6705H870.092L864.789 77.0646Z" fill="#5DF19F"/>
<path d="M434.633 172.413L473.475 250.132C479.123 261.426 479.777 270.724 475.404 278.024C471.031 285.324 462.732 288.974 450.508 288.974H439.902V308.395C439.902 315.592 437.56 321.48 432.912 326.163C428.263 330.812 422.34 333.154 415.143 333.154C410.322 333.154 405.57 331.638 400.922 328.643C396.273 325.647 392.761 321.859 390.419 317.245L360.392 257.191H402.781V299.58H413.387V257.191H450.473V246.585H355.089L340.971 218.314C334.153 204.437 333.189 193.005 338.148 184.052C343.106 175.099 352.851 170.623 367.451 170.623C377.334 170.623 385.702 173.79 392.52 180.161C399.338 186.531 402.747 194.52 402.747 204.196V214.802H413.353V172.413H434.564H434.633ZM381.673 204.196H365.764L371.067 214.802H381.673V204.196Z" fill="#5DF19F"/>
<path d="M609.492 288.975H568.859V246.586H558.253V262.494C558.253 270.724 555.602 277.508 550.299 282.811C544.996 288.114 538.212 290.765 529.982 290.765C522.579 290.765 515.279 288.458 508.185 283.775C501.057 279.126 495.685 273.203 492.035 266.041C484.494 251.2 484.322 238.976 491.519 229.3C498.716 219.658 511.525 214.802 530.017 214.802H547.682V204.197H461.148L445.239 172.414H551.228L609.526 288.975H609.492ZM540.623 246.586H524.714L530.017 257.191H540.623V246.586Z" fill="#5DF19F"/>
<path d="M651.88 214.803H641.274L657.183 246.586H625.4V257.191H646.612C651.191 257.191 655.014 258.707 658.01 261.702C661.005 264.698 662.52 268.486 662.52 273.1C662.52 277.715 661.005 281.502 658.01 284.498C655.014 287.494 651.226 289.009 646.612 289.009H620.132L561.834 172.448H604.223V214.837H614.829V197.172C614.829 189.528 617.342 183.192 622.335 178.199C627.328 173.206 633.664 170.692 641.309 170.692C648.265 170.692 655.048 172.861 661.694 177.234C668.34 181.608 673.333 187.083 676.604 193.66L703.084 246.654H667.754L651.846 214.871L651.88 214.803Z" fill="#5DF19F"/>
<path d="M862.069 288.974L823.227 211.255C817.338 199.479 816.891 189.768 821.918 182.124C826.911 174.479 836.209 170.657 849.741 170.657C859.762 170.657 869.403 173.481 878.701 179.128C887.998 184.775 894.816 191.972 899.189 200.684C906.007 213.976 907.109 224.96 902.461 233.638C897.812 242.281 888.48 246.62 874.465 246.62H867.406V257.226H927.46L943.369 289.009H862.138L862.069 288.974ZM877.978 204.196H867.372V214.802H883.281L877.978 204.196Z" fill="#5DF19F"/>
<path d="M1058.14 288.975H1022.81L985.724 214.803H975.118L991.027 246.586H959.244V257.191H980.455C985.035 257.191 988.857 258.707 991.853 261.702C994.849 264.698 996.364 268.486 996.364 273.1C996.364 277.715 994.849 281.502 991.853 284.498C988.857 287.494 985.069 289.009 980.455 289.009H953.975L895.677 172.448H938.066V214.837H948.672V197.172C948.672 189.528 951.186 183.192 956.179 178.199C961.172 173.206 967.508 170.692 975.152 170.692C982.108 170.692 988.892 172.861 995.538 177.234C1002.18 181.608 1007.18 187.083 1010.45 193.66L1058.14 289.043V288.975Z" fill="#5DF19F"/>
<path d="M127.27 47.6574C120.177 43.0087 112.773 40.6672 105.301 40.6672C96.8988 40.6672 89.8397 43.4563 84.2958 49.0003C78.7518 54.5443 75.9626 61.6034 75.9626 70.0054V84.8122H71.0729V37.5336H82.333C87.7048 37.5336 92.2157 35.743 95.7625 32.1962C99.3092 28.6495 101.1 24.1386 101.1 18.7668C101.1 13.395 99.3092 8.88407 95.7625 5.33731C92.2157 1.79055 87.7048 0 82.333 0H0L82.333 164.666H110.604C115.976 164.666 120.486 162.875 124.033 159.329C127.58 155.782 129.371 151.271 129.371 145.899C129.371 140.527 127.58 136.016 124.033 132.47C120.486 128.923 115.976 127.132 110.604 127.132H92.2845V122.243H125.858L109.949 90.4595H114.151L151.237 164.632H192.971L143.213 65.1156C139.701 58.091 134.329 52.2027 127.304 47.5885L127.27 47.6574ZM154.783 158.984L117.697 84.8122H100.721L116.63 116.595H86.6029V132.917H110.673C114.495 132.917 117.559 134.122 120.039 136.567C122.518 139.047 123.689 142.111 123.689 145.934C123.689 149.756 122.484 152.82 120.039 155.3C117.559 157.779 114.495 158.95 110.673 158.95H85.9486L9.33173 5.71604H82.4018C86.2241 5.71604 89.2888 6.92124 91.768 9.3661C94.2473 11.8109 95.4181 14.9101 95.4181 18.7323C95.4181 22.5545 94.2129 25.6192 91.768 28.0985C89.2888 30.5778 86.2241 31.7486 82.4018 31.7486H65.4256V90.4595H81.7476V69.9366C81.7476 63.0152 83.917 57.4712 88.4279 52.9602C92.9044 48.4838 98.4828 46.2799 105.404 46.2799C111.74 46.2799 118.076 48.3116 124.24 52.3404C130.438 56.4037 135.121 61.5345 138.186 67.6639L183.812 158.915H154.887L154.783 158.984Z" fill="#01CE53"/>
<path d="M136.016 42.423L154.783 79.9223H240.25V84.812H225.443C206.091 84.812 192.351 90.0805 184.638 100.445C176.787 110.982 176.89 124.377 184.913 140.183C188.77 147.793 194.555 154.129 202.062 159.018C209.637 163.943 217.488 166.456 225.443 166.456C234.43 166.456 241.937 163.495 247.791 157.675C253.61 151.856 256.572 144.315 256.572 135.327V122.277H261.461V164.666H309.566L248.411 42.3887H136.051L136.016 42.423ZM267.143 158.984V116.595H250.821V135.362C250.821 142.869 248.48 148.86 243.728 153.647C238.941 158.433 232.95 160.74 225.443 160.74C218.625 160.74 211.807 158.536 205.195 154.232C198.515 149.893 193.419 144.28 190.01 137.566C182.951 123.654 182.675 112.635 189.218 103.82C195.795 94.9702 207.985 90.4937 225.408 90.4937H245.931V74.1717H158.295L145.245 48.1047H244.829L300.269 158.95H267.143V158.984Z" fill="#01CE53"/>
<path d="M223.653 132.917H238.873V116.595H215.492L223.653 132.917ZM233.157 122.311V127.201H227.199L224.755 122.311H233.157Z" fill="#01CE53"/>
<path d="M355.399 159.363C358.946 155.816 360.737 151.305 360.737 145.933C360.737 140.561 358.946 136.05 355.399 132.504C351.853 128.957 347.342 127.166 341.97 127.166H323.651V122.277H357.224L341.316 90.4936H345.517L361.425 122.277H403.16L374.614 65.1497C371.102 58.1251 365.73 52.2368 358.705 47.6225C351.612 42.9739 344.208 40.6323 336.736 40.6323C328.334 40.6323 321.275 43.4215 315.731 48.9654C310.187 54.5094 307.398 61.5685 307.398 69.9705V84.7774H302.508V42.3885H252.612L313.768 164.666H342.039C347.411 164.666 351.922 162.875 355.468 159.328L355.399 159.363ZM261.841 48.139H296.757V90.5279H313.079V70.005C313.079 63.0836 315.249 57.5397 319.76 53.0288C324.236 48.5523 329.815 46.3485 336.736 46.3485C343.072 46.3485 349.408 48.38 355.572 52.4089C361.77 56.4722 366.453 61.6029 369.518 67.7323L393.932 116.595H365.007L349.098 84.8118H332.087L347.996 116.595H317.969V132.917H342.039C345.861 132.917 348.926 134.122 351.405 136.567C353.884 139.012 355.055 142.111 355.055 145.933C355.055 149.755 353.85 152.82 351.405 155.299C348.96 157.779 345.861 158.949 342.039 158.949H317.315L261.875 48.1046L261.841 48.139Z" fill="#01CE53"/>
<path d="M412.732 133.089C417.518 142.662 424.612 150.72 433.806 156.952C443.069 163.254 452.607 166.456 462.077 166.456C471.546 166.456 480.361 163.151 486.87 156.608C493.412 150.065 496.718 141.732 496.718 131.815V122.311H501.608V164.7H551.503L469.17 0.0341797H446.202C440.831 0.0341797 436.32 1.82484 432.773 5.3716C429.226 8.91836 427.436 13.4293 427.436 18.801C427.436 24.1728 429.226 28.6837 432.773 32.2305C436.32 35.7773 440.831 37.5678 446.202 37.5678H464.522V74.2407H458.564L454.949 66.9749C451.058 59.3305 444.722 52.9601 436.148 48.0359C427.608 43.1462 418.517 40.667 409.116 40.667C396.961 40.667 388.662 44.6959 384.496 52.6158C380.398 60.398 381.293 70.2463 387.113 81.8852L412.732 133.124V133.089ZM389.558 55.2672C392.691 49.2756 399.096 46.383 409.116 46.383C417.518 46.383 425.645 48.6213 433.289 52.9945C440.9 57.3333 446.444 62.9117 449.818 69.5575L455.018 79.9567H470.238V31.8518H446.168C442.346 31.8518 439.281 30.6465 436.802 28.2016C434.323 25.7223 433.152 22.6576 433.152 18.8354C433.152 15.0132 434.357 11.9486 436.802 9.46932C439.281 6.99003 442.346 5.81916 446.168 5.81916H465.589L542.206 159.053H507.324V116.664H491.002V131.884C491.002 140.355 488.316 147.139 482.841 152.648C477.331 158.158 470.548 160.809 462.077 160.809C453.606 160.809 445.307 157.951 437.008 152.304C428.641 146.588 422.167 139.288 417.828 130.61L392.209 79.3714C387.251 69.4543 386.355 61.3622 389.523 55.3017L389.558 55.2672Z" fill="#01CE53"/>
<path d="M448.786 127.924C453.779 131.23 458.841 132.917 463.868 132.917H470.273V116.595H463.868C461.354 116.595 458.909 115.769 456.361 114.081C453.744 112.359 451.85 110.225 450.542 107.573L433.841 74.2061H416.83L437.457 115.459C440.039 120.486 443.827 124.653 448.751 127.924H448.786ZM430.294 79.9222L445.411 110.121C447.167 113.634 449.784 116.561 453.193 118.833C456.671 121.14 460.252 122.311 463.868 122.311H464.522V127.201H463.868C459.977 127.201 455.983 125.858 451.919 123.172C447.822 120.452 444.688 116.974 442.553 112.876L426.093 79.9222H430.294Z" fill="#01CE53"/>
<path d="M537.248 127.821C542.62 138.461 550.574 147.345 560.904 154.266C571.269 161.222 582.013 164.734 592.791 164.734H605.153C610.525 164.734 615.036 162.944 618.582 159.397C622.129 155.85 623.92 151.339 623.92 145.968C623.92 140.596 622.129 136.085 618.582 132.538C615.036 128.991 610.525 127.201 605.153 127.201H565.622V119.453C565.622 107.504 563.074 96.3819 558.081 86.3959L554.844 79.9222H559.045L563.556 88.944C568.17 98.1724 570.512 108.434 570.512 119.453V122.311H615.104L593.617 79.3367C588.108 68.2144 579.74 58.8826 568.687 51.617C557.599 44.3168 546.098 40.6323 534.528 40.6323C522.958 40.6323 515.072 44.6956 511.215 52.6844C507.462 60.4322 508.529 70.2461 514.315 81.8849L537.282 127.821H537.248ZM516.346 55.1637C519.204 49.241 525.161 46.3485 534.528 46.3485C544.961 46.3485 555.395 49.723 565.553 56.4033C575.746 63.0836 583.459 71.6579 588.487 81.8849L605.842 116.595H576.193C575.815 105.748 573.301 95.5899 568.687 86.3959L562.592 74.206H545.581L552.95 88.944C557.564 98.138 559.906 108.434 559.906 119.453V132.917H605.153C608.975 132.917 612.04 134.122 614.519 136.567C616.998 139.012 618.169 142.111 618.169 145.933C618.169 149.755 616.964 152.82 614.519 155.299C612.074 157.779 608.975 158.949 605.153 158.949H592.791C583.184 158.949 573.508 155.747 564.107 149.446C554.603 143.11 547.303 134.949 542.379 125.204L519.411 79.2679C514.452 69.3163 513.385 61.1897 516.346 55.1292V55.1637Z" fill="#01CE53"/>
<path d="M676.914 132.917L647.576 74.2061H630.565L659.938 132.917H676.914ZM644.029 79.9222L667.651 127.201H663.45L639.828 79.9222H644.029Z" fill="#01CE53"/>
<path d="M621.165 126.03C627.018 137.738 635.903 147.517 647.61 155.058C659.318 162.634 671.508 166.456 683.767 166.456C696.025 166.456 705.426 162.29 709.937 154.025C714.413 145.899 713.587 135.603 707.526 123.447L686.349 81.0584C680.495 69.3507 671.611 59.5713 659.903 52.0302C648.196 44.4546 636.006 40.6323 623.747 40.6323C611.488 40.6323 602.088 44.7989 597.577 53.0631C593.1 61.1897 593.927 71.4856 599.987 83.641L621.199 126.03H621.165ZM602.535 55.8523C606.013 49.4819 612.935 46.3828 623.713 46.3828C634.491 46.3828 645.992 49.9297 656.77 56.8854C667.582 63.8756 675.812 72.8975 681.184 83.6755L702.396 126.064C707.561 136.429 708.422 144.935 704.909 151.305C701.432 157.675 694.51 160.774 683.767 160.774C673.023 160.774 661.487 157.228 650.709 150.272C639.897 143.282 631.667 134.26 626.295 123.482L605.118 81.0929C599.953 70.7281 599.092 62.2227 602.604 55.8523H602.535Z" fill="#01CE53"/>
<path d="M750.81 127.167C750.501 127.167 750.156 127.167 749.846 127.167H742.271V122.311H775.81L759.901 90.4939H764.102L780.011 122.311H821.746L793.165 65.1845C789.687 58.1598 784.35 52.2715 777.256 47.6228C770.197 42.9742 762.794 40.5981 755.253 40.5981C746.851 40.5981 739.791 43.4218 734.247 48.9314C728.704 54.4753 725.914 61.5344 725.914 69.9364V84.7433H721.025V42.3543H671.163L732.319 164.666H760.556C761.21 164.666 761.83 164.631 762.243 164.597H769.13V201.27H763.138L759.523 194.004C755.666 186.394 749.33 180.024 740.721 175.031C732.216 170.175 723.125 167.696 713.69 167.696C701.535 167.696 693.27 171.725 689.069 179.61C684.972 187.427 685.867 197.275 691.686 208.914L717.271 260.118C722.092 269.726 729.186 277.749 738.345 283.982C747.608 290.283 757.146 293.485 766.65 293.485C776.154 293.485 784.935 290.18 791.443 283.637C797.986 277.129 801.326 268.761 801.326 258.81V249.306H806.216V291.695H856.077L773.744 127.029H750.776L750.81 127.167ZM811.966 286.117V243.728H795.644V258.948C795.644 267.453 792.958 274.237 787.449 279.712C781.974 285.221 775.19 287.907 766.719 287.907C758.248 287.907 749.95 285.049 741.651 279.367C733.283 273.686 726.844 266.386 722.471 257.674L696.886 206.469C691.927 196.587 691.032 188.46 694.2 182.4C697.334 176.442 703.739 173.516 713.759 173.516C722.195 173.516 730.322 175.719 737.932 180.093C745.68 184.535 751.086 189.975 754.461 196.656L759.66 207.055H774.88V158.95H762.105C761.623 158.984 761.106 159.019 760.59 159.019H735.866L680.426 48.1393H715.308V90.5282H731.631V70.0053C731.631 63.0839 733.8 57.5399 738.311 53.0634C742.787 48.5869 748.331 46.3831 755.253 46.3831C761.623 46.3831 767.993 48.4148 774.123 52.4781C780.321 56.5414 785.004 61.6721 788.034 67.8014L812.483 116.664H783.558L767.649 84.8466H750.638L766.547 116.664H736.52V132.952H750.294C750.294 132.952 750.604 132.952 750.776 132.952H770.232L846.848 286.185H811.966V286.117Z" fill="#01CE53"/>
<path d="M760.969 241.179C758.352 239.423 756.458 237.323 755.115 234.706L738.449 201.304H721.438L742.064 242.591C744.647 247.584 748.469 251.785 753.359 255.022C758.283 258.328 763.379 260.015 768.441 260.015H774.846V243.693H768.441C765.928 243.693 763.483 242.867 760.935 241.179H760.969ZM769.164 254.333H768.476C764.55 254.333 760.556 252.99 756.561 250.304C752.395 247.584 749.33 244.21 747.195 240.043L730.735 207.055H734.936L750.019 237.288C751.775 240.766 754.392 243.693 757.801 245.966C761.21 248.238 764.86 249.444 768.476 249.444H769.164V254.333Z" fill="#01CE53"/>
<path d="M866.58 74.2061H851.36V90.528H874.741L866.58 74.2061ZM857.076 84.8118V79.9222H863.033L865.478 84.8118H857.076Z" fill="#01CE53"/>
<path d="M847.124 164.7H934.76L915.993 127.201H857.041V122.311H861.242C876.324 122.311 886.586 117.421 891.751 107.814C896.847 98.3102 895.746 86.3614 888.514 72.2432C883.934 63.0836 876.669 55.4391 866.958 49.5164C857.248 43.6281 846.986 40.6323 836.518 40.6323C822.021 40.6323 811.863 44.9366 806.319 53.4075C800.741 61.9473 801.119 72.6909 807.49 85.3972L847.124 164.7ZM811.105 56.5411C815.513 49.7919 824.087 46.3485 836.518 46.3485C845.953 46.3485 855.182 49.0688 863.997 54.4061C872.778 59.7435 879.32 66.5959 883.418 74.8258C889.754 87.1878 890.856 97.3805 886.724 105.094C882.557 112.807 874.224 116.56 861.242 116.56H851.325V132.882H912.481L925.531 158.949H850.671L812.586 82.8146C807.145 71.9333 806.663 63.3246 811.105 56.5066V56.5411Z" fill="#01CE53"/>
<path d="M369.276 217.66H384.496V201.338H361.115L369.276 217.66ZM378.78 207.055V211.944H372.822L370.378 207.055H378.78Z" fill="#01CE53"/>
<path d="M436.424 169.556H410.598V211.944H405.708V204.197C405.708 193.763 401.955 184.982 394.551 178.095C387.217 171.243 378.126 167.799 367.52 167.799C351.887 167.799 341.178 172.827 335.703 182.71C330.296 192.489 331.226 204.885 338.457 219.623L353.368 249.478H447.649V254.368H410.563V296.757H405.674V254.368H355.778L387.871 318.588C390.454 323.616 394.31 327.817 399.372 331.088C404.468 334.394 409.771 336.047 415.143 336.047C423.063 336.047 429.743 333.429 434.909 328.23C440.108 323.03 442.725 316.384 442.725 308.464V291.901H450.473C463.73 291.901 472.959 287.735 477.848 279.574C482.704 271.413 482.084 261.117 476.023 248.927L436.389 169.624L436.424 169.556ZM472.993 276.544C469.171 282.983 461.802 286.116 450.542 286.116H437.078V308.396C437.078 314.835 435.081 320 430.949 324.132C426.816 328.264 421.686 330.261 415.212 330.261C410.977 330.261 406.707 328.884 402.54 326.198C398.339 323.478 395.137 320.035 393.036 315.937L365.075 260.015H399.957V302.404H416.279V260.015H453.365V243.693H356.88L343.554 217.041C337.183 204.093 336.219 193.453 340.661 185.43C345.103 177.407 353.884 173.481 367.486 173.481C376.714 173.481 384.29 176.339 390.626 182.262C396.893 188.116 399.957 195.278 399.957 204.197V217.661H416.279V175.272H432.842L470.893 251.406C476.058 261.737 476.747 270.208 472.924 276.578L472.993 276.544Z" fill="#01CE53"/>
<path d="M440.624 169.555L459.391 207.055H544.858V211.944H530.051C510.699 211.944 496.959 217.213 489.246 227.578C481.395 238.115 481.498 251.51 489.521 267.315C493.378 274.925 499.163 281.261 506.67 286.151C514.245 291.075 522.097 293.589 530.051 293.589C539.038 293.589 546.545 290.627 552.399 284.808C558.218 278.988 561.18 271.447 561.18 262.46V249.409H566.069V291.798H614.174L553.019 169.521H440.659L440.624 169.555ZM571.751 286.116V243.728H555.429V262.494C555.429 270.001 553.088 275.993 548.336 280.779C543.549 285.565 537.558 287.873 530.051 287.873C523.233 287.873 516.415 285.669 509.803 281.364C503.123 277.026 498.027 271.413 494.618 264.698C487.559 250.787 487.283 239.767 493.826 230.952C500.403 222.103 512.593 217.626 530.016 217.626H550.54V201.304H462.904L449.853 175.237H549.438L604.877 286.082H571.751V286.116Z" fill="#01CE53"/>
<path d="M528.261 260.049H543.481V243.728H520.1L528.261 260.049ZM537.765 249.444V254.333H531.807L529.363 249.444H537.765Z" fill="#01CE53"/>
<path d="M663.278 174.79C656.185 170.141 648.781 167.799 641.309 167.799C632.907 167.799 625.848 170.589 620.304 176.133C614.76 181.676 611.971 188.736 611.971 197.138V211.944H607.081V169.556H557.186L618.341 291.833H646.612C651.984 291.833 656.495 290.042 660.042 286.495C663.588 282.948 665.379 278.438 665.379 273.066C665.379 267.694 663.588 263.183 660.042 259.636C656.495 256.09 651.984 254.299 646.612 254.299H628.293V249.409H661.867L645.958 217.626H650.159L666.068 249.409H707.802L679.256 192.282C675.744 185.258 670.372 179.369 663.347 174.755L663.278 174.79ZM669.545 243.728L653.637 211.944H636.626L652.535 243.728H622.508V260.049H646.578C650.4 260.049 653.465 261.255 655.944 263.7C658.423 266.144 659.594 269.244 659.594 273.066C659.594 276.888 658.389 279.953 655.944 282.432C653.499 284.911 650.4 286.082 646.578 286.082H621.854L566.414 175.237H601.331V217.626H617.653V197.103C617.653 190.182 619.822 184.638 624.333 180.127C628.809 175.65 634.388 173.447 641.309 173.447C647.645 173.447 653.981 175.478 660.145 179.507C666.343 183.57 671.026 188.701 674.091 194.83L698.505 243.693H669.58L669.545 243.728Z" fill="#01CE53"/>
<path d="M870.23 254.333V249.443H874.431C889.513 249.443 899.775 244.554 904.94 234.946C910.036 225.443 908.934 213.494 901.703 199.376C897.123 190.216 889.858 182.572 880.147 176.649C870.437 170.761 860.175 167.765 849.707 167.765C835.21 167.765 825.052 172.069 819.508 180.54C813.929 189.08 814.308 199.823 820.679 212.53L860.313 291.832H947.949L929.182 254.333H870.23ZM863.86 286.116L825.809 209.981C820.369 199.1 819.887 190.492 824.329 183.673C828.736 176.924 837.311 173.481 849.741 173.481C859.176 173.481 868.405 176.201 877.22 181.538C886.001 186.876 892.544 193.728 896.641 201.958C902.977 214.32 904.079 224.513 899.947 232.226C895.78 239.939 887.447 243.693 874.465 243.693H864.548V260.015H925.704L938.755 286.082H863.894L863.86 286.116Z" fill="#01CE53"/>
<path d="M879.734 201.338H864.514V217.66H887.895L879.734 201.338ZM870.23 211.944V207.055H876.187L878.632 211.944H870.23Z" fill="#01CE53"/>
<path d="M1021.05 291.833H1062.79L1013.03 192.317C1009.52 185.292 1004.18 179.404 997.121 174.79C990.028 170.141 982.624 167.799 975.152 167.799C966.75 167.799 959.691 170.589 954.147 176.133C948.603 181.676 945.814 188.736 945.814 197.138V211.944H940.924V169.556H891.063L952.219 291.833H980.49C985.861 291.833 990.372 290.042 993.919 286.495C997.466 282.948 999.256 278.438 999.256 273.066C999.256 267.694 997.466 263.183 993.919 259.636C990.372 256.09 985.861 254.299 980.49 254.299H962.17V249.409H995.744L979.835 217.626H984.036L1021.12 291.798L1021.05 291.833ZM986.378 243.728H956.351V260.049H980.421C984.243 260.049 987.308 261.255 989.787 263.7C992.266 266.179 993.437 269.244 993.437 273.066C993.437 276.888 992.232 279.953 989.787 282.432C987.308 284.911 984.243 286.082 980.421 286.082H955.697L900.257 175.237H935.174V217.626H951.496V197.103C951.496 190.182 953.665 184.638 958.176 180.127C962.652 175.65 968.231 173.447 975.152 173.447C981.488 173.447 987.824 175.478 993.988 179.507C1000.19 183.57 1004.87 188.701 1007.93 194.83L1053.56 286.082H1024.63L987.549 211.91H970.538L986.447 243.693L986.378 243.728Z" fill="#01CE53"/>
</svg>
