<svg width="271" height="197" viewBox="0 0 271 197" fill="none" xmlns="http://www.w3.org/2000/svg">
<g clip-path="url(#clip0)">
<path d="M183.64 1.5H25.95C12.4466 1.5 1.5 12.4466 1.5 25.95V42.62C1.5 56.1234 12.4466 67.07 25.95 67.07H183.64C197.143 67.07 208.09 56.1234 208.09 42.62V25.95C208.09 12.4466 197.143 1.5 183.64 1.5Z" stroke="white" stroke-width="3" stroke-miterlimit="10"/>
<path d="M244.64 67.08H25.95C12.4466 67.08 1.5 78.0266 1.5 91.53V108.2C1.5 121.703 12.4466 132.65 25.95 132.65H244.64C258.143 132.65 269.09 121.703 269.09 108.2V91.53C269.09 78.0266 258.143 67.08 244.64 67.08Z" stroke="white" stroke-width="3" stroke-miterlimit="10"/>
<path d="M41.7899 118.15H47.1399L38.0399 102.75C43.9899 101.4 46.0399 97.05 46.0399 93.05C46.0399 87.85 43.5899 82.65 34.2899 82.65H21.1399V118.15H25.8899V103.4H33.0899L41.7899 118.15ZM25.8899 86.65H33.7399C39.1899 86.65 41.0399 89.4 41.0399 93.05C41.0399 96.6 39.2399 99.4 33.7399 99.4H25.8899V86.65ZM66.9153 119C76.7153 119 83.1153 111.9 83.1153 100.4C83.1153 88.8 76.7153 81.8 66.9153 81.8C57.0653 81.8 50.6653 88.8 50.6653 100.4C50.6653 111.75 57.0653 119 66.9153 119ZM66.9153 115C59.8153 115 55.6653 109.3 55.6653 100.4C55.6653 91.3 59.8153 85.8 66.9153 85.8C74.0153 85.8 78.1153 91.3 78.1153 100.4C78.1153 109.45 74.0153 115 66.9153 115ZM108.578 99.8C112.628 98.65 114.528 95.45 114.528 92.1C114.528 87.9 112.078 82.65 102.728 82.65H90.3782V118.15H103.778C112.778 118.15 115.528 112.95 115.528 108.4C115.528 103.65 112.828 100.55 108.578 99.8ZM102.728 86.65C108.478 86.65 109.828 89.65 109.828 92.45C109.828 94.9 108.828 98.05 102.728 98.05H95.1282V86.65H102.728ZM103.528 114.15H95.1282V102.05H104.028C108.878 102.05 110.828 104.65 110.828 107.95C110.828 111.15 109.078 114.15 103.528 114.15ZM136.3 119C146.1 119 152.5 111.9 152.5 100.4C152.5 88.8 146.1 81.8 136.3 81.8C126.45 81.8 120.05 88.8 120.05 100.4C120.05 111.75 126.45 119 136.3 119ZM136.3 115C129.2 115 125.05 109.3 125.05 100.4C125.05 91.3 129.2 85.8 136.3 85.8C143.4 85.8 147.5 91.3 147.5 100.4C147.5 109.45 143.4 115 136.3 115ZM173.013 119C181.563 119 185.863 113.7 187.213 107L182.613 106.2C181.613 111.5 178.063 114.85 173.013 114.85C165.763 114.85 162.013 108.55 162.013 100.25C162.013 91.65 165.963 85.85 172.913 85.85C178.413 85.85 181.663 89.4 182.363 94.75L187.213 94.25C186.313 86.9 181.813 81.8 173.163 81.8C162.613 81.8 157.013 89.4 157.013 100.3C157.013 110.6 162.013 119 173.013 119ZM191.474 113.75V118.15H217.174V114.15H196.474L216.474 87.05V82.65H192.124V86.65H211.424L191.474 113.75ZM247.16 118.15H252.06L238.61 82.65H233.91L220.46 118.15H225.36L229.01 107.9H243.51L247.16 118.15ZM230.41 103.9L235.36 90.05C235.66 89.25 235.91 88.4 236.21 87.35H236.31C236.61 88.4 236.86 89.25 237.16 90.05L242.11 103.9H230.41Z" fill="white"/>
<path d="M34.6399 53.47C44.4399 53.47 50.8399 46.37 50.8399 34.87C50.8399 23.27 44.4399 16.27 34.6399 16.27C24.7899 16.27 18.3899 23.27 18.3899 34.87C18.3899 46.22 24.7899 53.47 34.6399 53.47ZM34.6399 49.47C27.5399 49.47 23.3899 43.77 23.3899 34.87C23.3899 25.77 27.5399 20.27 34.6399 20.27C41.7399 20.27 45.8399 25.77 45.8399 34.87C45.8399 43.92 41.7399 49.47 34.6399 49.47ZM58.1028 52.62H69.6528C80.0028 52.62 86.6028 45.17 86.6028 34.82C86.6028 24.27 79.9528 17.12 69.7528 17.12H58.1028V52.62ZM62.8528 48.62V21.12H69.6528C77.3028 21.12 81.5528 26.92 81.5528 34.82C81.5528 42.42 77.2028 48.62 69.5528 48.62H62.8528ZM88.593 48.22V52.62H114.293V48.62H93.593L113.593 21.52V17.12H89.243V21.12H108.543L88.593 48.22ZM125.06 52.62V17.12H120.31V52.62H125.06ZM139.806 48.62V36.42H156.206V32.42H139.806V21.12H157.056V17.12H135.056V52.62H157.406V48.62H139.806ZM172.521 14.97H177.821V9.61999H172.521V14.97ZM162.421 48.22V52.62H188.121V48.62H167.421L187.421 21.52V17.12H163.071V21.12H182.371L162.421 48.22Z" fill="white"/>
<path d="M21.1399 184.45H32.6899C43.0399 184.45 49.6399 177 49.6399 166.65C49.6399 156.1 42.9899 148.95 32.7899 148.95H21.1399V184.45ZM25.8899 180.45V152.95H32.6899C40.3399 152.95 44.5899 158.75 44.5899 166.65C44.5899 174.25 40.2399 180.45 32.5899 180.45H25.8899ZM77.5321 184.45H82.8821L73.7821 169.05C79.7321 167.7 81.7821 163.35 81.7821 159.35C81.7821 154.15 79.3321 148.95 70.0321 148.95H56.8821V184.45H61.6321V169.7H68.8321L77.5321 184.45ZM61.6321 152.95H69.4821C74.9321 152.95 76.7821 155.7 76.7821 159.35C76.7821 162.9 74.9821 165.7 69.4821 165.7H61.6321V152.95ZM102.657 185.3C112.457 185.3 118.857 178.2 118.857 166.7C118.857 155.1 112.457 148.1 102.657 148.1C92.8075 148.1 86.4075 155.1 86.4075 166.7C86.4075 178.05 92.8075 185.3 102.657 185.3ZM102.657 181.3C95.5575 181.3 91.4075 175.6 91.4075 166.7C91.4075 157.6 95.5575 152.1 102.657 152.1C109.757 152.1 113.857 157.6 113.857 166.7C113.857 175.75 109.757 181.3 102.657 181.3ZM138.72 148.95H126.12V184.45H130.87V169.95H138.72C146.07 169.95 150.77 165.85 150.77 159.45C150.77 153.05 146.07 148.95 138.72 148.95ZM138.22 165.95H130.87V152.95H138.22C142.82 152.95 145.77 155.5 145.77 159.45C145.77 163.4 142.82 165.95 138.22 165.95ZM169.773 184.45H174.023V158.75C174.023 156.6 173.973 155.3 173.873 154.05H173.973C174.523 155.65 175.173 156.85 176.173 158.6L191.223 184.45H196.973V148.95H192.723V174.65C192.723 176.8 192.773 178.1 192.873 179.35H192.773C192.223 177.85 191.573 176.55 190.573 174.8L175.523 148.95H169.773V184.45ZM213.13 169.4C218.43 169.4 222.08 165.9 222.08 159.8C222.08 153.7 218.43 150.25 213.13 150.25C207.78 150.25 204.13 153.7 204.13 159.8C204.13 165.9 207.78 169.4 213.13 169.4ZM213.13 166.55C209.88 166.55 207.93 164.25 207.93 159.8C207.93 155.4 209.88 153.1 213.13 153.1C216.33 153.1 218.28 155.4 218.28 159.8C218.28 164.25 216.33 166.55 213.13 166.55ZM233.595 178.55H227.745V184.45H233.595V178.55ZM243.559 184.45H248.059V149.7H244.259C243.409 153.35 240.559 155.35 237.209 155.35H236.109V159.4H237.909C239.809 159.4 242.509 158.65 243.559 157.2V184.45Z" fill="white"/>
</g>
<defs>
<clipPath id="clip0">
<rect width="270.59" height="196.4" fill="white"/>
</clipPath>
</defs>
</svg>
