<svg width="437" height="256" viewBox="0 0 437 256" fill="none" xmlns="http://www.w3.org/2000/svg">
<mask id="path-1-inside-1" fill="white">
<path d="M225.478 130.703C226.095 117.657 224.077 104.617 219.541 92.3514C215.006 80.0856 208.045 68.8411 199.069 59.2788C190.092 49.7164 179.28 42.0291 167.269 36.6688C155.258 31.3084 142.289 28.3831 129.126 28.0649C115.962 27.7466 102.87 30.0418 90.6173 34.8155C78.3648 39.5892 67.1998 46.7451 57.7784 55.8627C48.357 64.9802 40.8695 75.8754 35.7558 87.9078C30.6421 99.9403 28.0055 112.867 28.0009 125.929L126.794 126.038L225.478 130.703Z"/>
</mask>
<path d="M225.478 130.703C226.095 117.657 224.077 104.617 219.541 92.3514C215.006 80.0856 208.045 68.8411 199.069 59.2788C190.092 49.7164 179.28 42.0291 167.269 36.6688C155.258 31.3084 142.289 28.3831 129.126 28.0649C115.962 27.7466 102.87 30.0418 90.6173 34.8155C78.3648 39.5892 67.1998 46.7451 57.7784 55.8627C48.357 64.9802 40.8695 75.8754 35.7558 87.9078C30.6421 99.9403 28.0055 112.867 28.0009 125.929L126.794 126.038L225.478 130.703Z" stroke="white" stroke-width="2" mask="url(#path-1-inside-1)"/>
<mask id="path-2-inside-2" fill="white">
<path d="M217.196 165.2C221.218 155.537 223.678 145.298 224.482 134.871L127.426 127.839L217.196 165.2Z"/>
</mask>
<path d="M217.196 165.2C221.218 155.537 223.678 145.298 224.482 134.871L127.426 127.839L217.196 165.2Z" fill="white" stroke="white" stroke-width="2" mask="url(#path-2-inside-2)"/>
<mask id="path-3-inside-3" fill="white">
<path d="M27.6224 128.51C27.6224 150.658 35.2512 172.142 49.2453 189.404C63.2394 206.665 82.7593 218.669 104.572 223.426C126.385 228.184 149.182 225.41 169.188 215.564C189.194 205.718 205.209 189.39 214.579 169.286L125.622 128.51L27.6224 128.51Z"/>
</mask>
<path d="M27.6224 128.51C27.6224 150.658 35.2512 172.142 49.2453 189.404C63.2394 206.665 82.7593 218.669 104.572 223.426C126.385 228.184 149.182 225.41 169.188 215.564C189.194 205.718 205.209 189.39 214.579 169.286L125.622 128.51L27.6224 128.51Z" stroke="white" stroke-width="2" mask="url(#path-3-inside-3)"/>
<path d="M66.08 88.34H67.1V85.052C67.364 85.64 68.012 86.144 68.936 86.144C70.388 86.144 71.42 84.92 71.42 83C71.42 81.104 70.448 79.856 68.996 79.856C68.12 79.856 67.424 80.288 67.04 81.116V80H66.08V88.34ZM68.696 85.244C67.7 85.244 67.076 84.428 67.076 83.132V82.844C67.076 81.548 67.724 80.756 68.732 80.756C69.74 80.756 70.34 81.584 70.34 83C70.34 84.404 69.716 85.244 68.696 85.244ZM73.9889 81.368V80H73.0409V86H74.0609V83.432C74.0609 82.712 74.0849 81.908 74.6609 81.332C74.9489 81.044 75.3569 80.864 75.9809 80.864H76.0289V79.868C75.9569 79.856 75.8849 79.856 75.8129 79.856C74.9009 79.856 74.2769 80.528 73.9889 81.368ZM79.5508 86.144C81.2428 86.144 82.3468 84.956 82.3468 83C82.3468 81.044 81.2428 79.856 79.5508 79.856C77.8588 79.856 76.7548 81.044 76.7548 83C76.7548 84.956 77.8588 86.144 79.5508 86.144ZM79.5508 85.256C78.4708 85.256 77.8348 84.488 77.8348 83C77.8348 81.512 78.4708 80.744 79.5508 80.744C80.6308 80.744 81.2668 81.512 81.2668 83C81.2668 84.488 80.6308 85.256 79.5508 85.256ZM85.8588 86.144C86.7948 86.144 87.4428 85.688 87.8028 84.884V86H88.7628V77.3H87.7428V80.888C87.3588 80.18 86.7708 79.856 85.9788 79.856C84.4788 79.856 83.4228 81.152 83.4228 83C83.4228 84.884 84.4068 86.144 85.8588 86.144ZM86.1348 85.244C85.1148 85.244 84.5028 84.404 84.5028 83C84.5028 81.584 85.1148 80.756 86.1348 80.756C87.1428 80.756 87.7668 81.56 87.7668 82.868V83.144C87.7668 84.428 87.1308 85.244 86.1348 85.244ZM92.8543 86.144C93.6943 86.144 94.4383 85.604 94.7143 84.872V86H95.6743V80H94.6543V83.228C94.6543 84.452 94.0063 85.268 93.0463 85.268C92.2543 85.268 91.8223 84.716 91.8223 83.708V80H90.8023V83.828C90.8023 85.232 91.3423 86.144 92.8543 86.144ZM101.822 86H103.082L100.742 82.316L102.938 80H101.606L98.9178 82.952V77.3H97.8978V86H98.9178V84.164L100.01 83.06L101.822 86ZM106.386 86.144C107.73 86.144 108.63 85.352 108.846 83.984L107.874 83.828C107.718 84.764 107.214 85.256 106.398 85.256C105.33 85.256 104.706 84.428 104.706 82.988C104.706 81.584 105.33 80.744 106.362 80.744C107.178 80.744 107.706 81.248 107.814 82.16L108.858 82.04C108.702 80.66 107.79 79.856 106.386 79.856C104.682 79.856 103.626 81.044 103.626 83C103.626 84.92 104.706 86.144 106.386 86.144ZM110.386 78.884H111.55V77.6H110.386V78.884ZM109.954 88.424C111.154 88.424 111.478 87.56 111.478 86.6V80H110.458V86.492C110.458 87.308 110.254 87.5 109.81 87.5C109.702 87.5 109.57 87.5 109.222 87.476V88.352C109.402 88.4 109.738 88.424 109.954 88.424ZM115.123 86.144C116.107 86.144 116.863 85.676 117.139 84.908C117.151 85.292 117.187 85.688 117.235 86H118.303C118.159 85.532 118.099 84.896 118.099 83.972V82.352C118.099 80.6 117.379 79.856 115.735 79.856C114.331 79.856 113.371 80.66 113.287 81.884H114.379C114.427 81.128 114.931 80.696 115.747 80.696C116.671 80.696 117.067 81.14 117.067 82.244V82.34L115.951 82.472C114.967 82.592 114.391 82.736 113.935 82.964C113.395 83.264 113.095 83.78 113.095 84.38C113.095 85.448 113.899 86.144 115.123 86.144ZM115.351 85.304C114.619 85.304 114.175 84.944 114.175 84.356C114.175 83.768 114.559 83.456 115.447 83.324L117.079 83.084V83.384C117.079 84.548 116.395 85.304 115.351 85.304ZM125.261 86.144C126.725 86.144 127.553 85.388 127.553 84.308C127.553 83.432 127.073 82.88 125.993 82.676L124.829 82.46C124.241 82.352 123.905 82.112 123.905 81.608C123.905 81.02 124.373 80.684 125.141 80.684C125.957 80.684 126.425 81.104 126.557 81.704L127.565 81.476C127.445 80.468 126.533 79.856 125.189 79.856C123.773 79.856 122.909 80.624 122.909 81.656C122.909 82.568 123.485 83.144 124.505 83.336L125.681 83.552C126.221 83.648 126.545 83.864 126.545 84.392C126.545 84.908 126.101 85.304 125.297 85.304C124.421 85.304 123.857 84.872 123.713 84.116L122.681 84.296C122.885 85.484 123.845 86.144 125.261 86.144ZM129.244 88.34H130.264V85.052C130.528 85.64 131.176 86.144 132.1 86.144C133.552 86.144 134.584 84.92 134.584 83C134.584 81.104 133.612 79.856 132.16 79.856C131.284 79.856 130.588 80.288 130.204 81.116V80H129.244V88.34ZM131.86 85.244C130.864 85.244 130.24 84.428 130.24 83.132V82.844C130.24 81.548 130.888 80.756 131.896 80.756C132.904 80.756 133.504 81.584 133.504 83C133.504 84.404 132.88 85.244 131.86 85.244ZM138.461 86.144C140.153 86.144 141.257 84.956 141.257 83C141.257 81.044 140.153 79.856 138.461 79.856C136.769 79.856 135.665 81.044 135.665 83C135.665 84.956 136.769 86.144 138.461 86.144ZM138.461 85.256C137.381 85.256 136.745 84.488 136.745 83C136.745 81.512 137.381 80.744 138.461 80.744C139.541 80.744 140.177 81.512 140.177 83C140.177 84.488 139.541 85.256 138.461 85.256ZM144.769 86.144C145.705 86.144 146.353 85.688 146.713 84.884V86H147.673V77.3H146.653V80.888C146.269 80.18 145.681 79.856 144.889 79.856C143.389 79.856 142.333 81.152 142.333 83C142.333 84.884 143.317 86.144 144.769 86.144ZM145.045 85.244C144.025 85.244 143.413 84.404 143.413 83C143.413 81.584 144.025 80.756 145.045 80.756C146.053 80.756 146.677 81.56 146.677 82.868V83.144C146.677 84.428 146.041 85.244 145.045 85.244ZM149.893 86H150.913V82.868C150.913 81.536 151.525 80.732 152.521 80.732C153.397 80.732 153.841 81.272 153.841 82.328V86H154.861V82.268C154.861 80.672 154.177 79.856 152.857 79.856C151.909 79.856 151.249 80.288 150.853 81.188V80H149.893V86ZM156.77 78.884H157.934V77.6H156.77V78.884ZM156.842 86H157.862V80H156.842V86Z" fill="white"/>
<path d="M66.08 183.34H67.1V180.052C67.364 180.64 68.012 181.144 68.936 181.144C70.388 181.144 71.42 179.92 71.42 178C71.42 176.104 70.448 174.856 68.996 174.856C68.12 174.856 67.424 175.288 67.04 176.116V175H66.08V183.34ZM68.696 180.244C67.7 180.244 67.076 179.428 67.076 178.132V177.844C67.076 176.548 67.724 175.756 68.732 175.756C69.74 175.756 70.34 176.584 70.34 178C70.34 179.404 69.716 180.244 68.696 180.244ZM73.9889 176.368V175H73.0409V181H74.0609V178.432C74.0609 177.712 74.0849 176.908 74.6609 176.332C74.9489 176.044 75.3569 175.864 75.9809 175.864H76.0289V174.868C75.9569 174.856 75.8849 174.856 75.8129 174.856C74.9009 174.856 74.2769 175.528 73.9889 176.368ZM79.5508 181.144C81.2428 181.144 82.3468 179.956 82.3468 178C82.3468 176.044 81.2428 174.856 79.5508 174.856C77.8588 174.856 76.7548 176.044 76.7548 178C76.7548 179.956 77.8588 181.144 79.5508 181.144ZM79.5508 180.256C78.4708 180.256 77.8348 179.488 77.8348 178C77.8348 176.512 78.4708 175.744 79.5508 175.744C80.6308 175.744 81.2668 176.512 81.2668 178C81.2668 179.488 80.6308 180.256 79.5508 180.256ZM85.8588 181.144C86.7948 181.144 87.4428 180.688 87.8028 179.884V181H88.7628V172.3H87.7428V175.888C87.3588 175.18 86.7708 174.856 85.9788 174.856C84.4788 174.856 83.4228 176.152 83.4228 178C83.4228 179.884 84.4068 181.144 85.8588 181.144ZM86.1348 180.244C85.1148 180.244 84.5028 179.404 84.5028 178C84.5028 176.584 85.1148 175.756 86.1348 175.756C87.1428 175.756 87.7668 176.56 87.7668 177.868V178.144C87.7668 179.428 87.1308 180.244 86.1348 180.244ZM92.8543 181.144C93.6943 181.144 94.4383 180.604 94.7143 179.872V181H95.6743V175H94.6543V178.228C94.6543 179.452 94.0063 180.268 93.0463 180.268C92.2543 180.268 91.8223 179.716 91.8223 178.708V175H90.8023V178.828C90.8023 180.232 91.3423 181.144 92.8543 181.144ZM101.822 181H103.082L100.742 177.316L102.938 175H101.606L98.9178 177.952V172.3H97.8978V181H98.9178V179.164L100.01 178.06L101.822 181ZM106.386 181.144C107.73 181.144 108.63 180.352 108.846 178.984L107.874 178.828C107.718 179.764 107.214 180.256 106.398 180.256C105.33 180.256 104.706 179.428 104.706 177.988C104.706 176.584 105.33 175.744 106.362 175.744C107.178 175.744 107.706 176.248 107.814 177.16L108.858 177.04C108.702 175.66 107.79 174.856 106.386 174.856C104.682 174.856 103.626 176.044 103.626 178C103.626 179.92 104.706 181.144 106.386 181.144ZM110.386 173.884H111.55V172.6H110.386V173.884ZM109.954 183.424C111.154 183.424 111.478 182.56 111.478 181.6V175H110.458V181.492C110.458 182.308 110.254 182.5 109.81 182.5C109.702 182.5 109.57 182.5 109.222 182.476V183.352C109.402 183.4 109.738 183.424 109.954 183.424ZM115.123 181.144C116.107 181.144 116.863 180.676 117.139 179.908C117.151 180.292 117.187 180.688 117.235 181H118.303C118.159 180.532 118.099 179.896 118.099 178.972V177.352C118.099 175.6 117.379 174.856 115.735 174.856C114.331 174.856 113.371 175.66 113.287 176.884H114.379C114.427 176.128 114.931 175.696 115.747 175.696C116.671 175.696 117.067 176.14 117.067 177.244V177.34L115.951 177.472C114.967 177.592 114.391 177.736 113.935 177.964C113.395 178.264 113.095 178.78 113.095 179.38C113.095 180.448 113.899 181.144 115.123 181.144ZM115.351 180.304C114.619 180.304 114.175 179.944 114.175 179.356C114.175 178.768 114.559 178.456 115.447 178.324L117.079 178.084V178.384C117.079 179.548 116.395 180.304 115.351 180.304ZM126.149 181.144C127.649 181.144 128.621 179.872 128.621 178C128.621 176.164 127.673 174.856 126.209 174.856C125.273 174.856 124.613 175.372 124.301 176.044V172.3H123.281V181H124.061L124.241 179.968C124.553 180.664 125.237 181.144 126.149 181.144ZM125.873 180.244C124.865 180.244 124.277 179.428 124.277 178.18V177.868C124.277 176.56 124.877 175.756 125.885 175.756C126.953 175.756 127.541 176.656 127.541 178C127.541 179.368 126.917 180.244 125.873 180.244ZM131.32 172.3H130.3V181H131.32V172.3ZM135.417 181.144C136.257 181.144 137.001 180.604 137.277 179.872V181H138.237V175H137.217V178.228C137.217 179.452 136.569 180.268 135.609 180.268C134.817 180.268 134.385 179.716 134.385 178.708V175H133.365V178.828C133.365 180.232 133.905 181.144 135.417 181.144ZM139.74 180.22V181H144.42V180.124H141L144.24 175.756V175H139.86V175.864H143.016L139.74 180.22ZM145.885 183.4C146.893 183.4 147.613 182.896 148.165 181.384L150.505 175H149.401L148.009 179.176C147.913 179.476 147.841 179.716 147.805 179.884H147.781C147.745 179.716 147.685 179.476 147.577 179.176L146.041 175H144.901L147.289 180.928L147.133 181.372C146.857 182.152 146.485 182.476 145.765 182.476C145.633 182.476 145.489 182.476 145.333 182.452V183.352C145.525 183.388 145.705 183.4 145.885 183.4Z" fill="white"/>
<path d="M166.636 86.18C168.76 86.18 170.032 85.04 170.032 83.108C170.032 81.344 169.012 80.264 167.32 80.264C166.516 80.264 165.904 80.492 165.544 80.924L165.736 79.52H169.576V77.66H163.984L163.456 82.52L165.568 82.712C165.724 82.208 166.096 81.932 166.624 81.932C167.236 81.932 167.644 82.424 167.644 83.18C167.644 83.912 167.248 84.344 166.576 84.344C166.048 84.344 165.664 83.996 165.556 83.42L163.24 83.816C163.492 85.292 164.764 86.18 166.636 86.18ZM172.307 86H174.707V77.66H172.775C172.367 78.596 171.839 78.932 170.723 78.98H170.519V81.14H170.795C171.431 81.14 171.947 80.996 172.307 80.72V86ZM180.577 86.168H181.993L187.789 77.24H186.397L180.577 86.168ZM181.213 82.028C182.761 82.028 183.781 81.104 183.757 79.676C183.781 78.248 182.761 77.336 181.213 77.336C179.665 77.336 178.645 78.248 178.669 79.676C178.645 81.104 179.665 82.028 181.213 82.028ZM181.213 80.768C180.697 80.768 180.349 80.48 180.349 79.676C180.349 78.872 180.697 78.596 181.213 78.596C181.729 78.596 182.077 78.872 182.077 79.676C182.077 80.48 181.729 80.768 181.213 80.768ZM187.153 86.144C188.701 86.144 189.721 85.22 189.697 83.792C189.721 82.364 188.701 81.452 187.153 81.452C185.605 81.452 184.585 82.364 184.609 83.792C184.585 85.22 185.605 86.144 187.153 86.144ZM187.153 84.884C186.637 84.884 186.289 84.596 186.289 83.792C186.289 82.988 186.637 82.712 187.153 82.712C187.669 82.712 188.017 82.988 188.017 83.792C188.017 84.596 187.669 84.884 187.153 84.884Z" fill="white"/>
<path d="M162.68 179.308V177.58H161.492V172.66H158.852L155.3 177.688V179.308H159.092V181H161.492V179.308H162.68ZM159.212 175.54V177.58H157.328C157.436 177.484 157.556 177.328 157.736 177.064L158.804 175.528C158.996 175.24 159.128 175.024 159.212 174.82H159.236C159.212 175.036 159.212 175.24 159.212 175.54ZM171.258 179.308V177.58H170.07V172.66H167.43L163.878 177.688V179.308H167.67V181H170.07V179.308H171.258ZM167.79 175.54V177.58H165.906C166.014 177.484 166.134 177.328 166.314 177.064L167.382 175.528C167.574 175.24 167.706 175.024 167.79 174.82H167.814C167.79 175.036 167.79 175.24 167.79 175.54ZM176.527 181.168H177.943L183.739 172.24H182.347L176.527 181.168ZM177.163 177.028C178.711 177.028 179.731 176.104 179.707 174.676C179.731 173.248 178.711 172.336 177.163 172.336C175.615 172.336 174.595 173.248 174.619 174.676C174.595 176.104 175.615 177.028 177.163 177.028ZM177.163 175.768C176.647 175.768 176.299 175.48 176.299 174.676C176.299 173.872 176.647 173.596 177.163 173.596C177.679 173.596 178.027 173.872 178.027 174.676C178.027 175.48 177.679 175.768 177.163 175.768ZM183.103 181.144C184.651 181.144 185.671 180.22 185.647 178.792C185.671 177.364 184.651 176.452 183.103 176.452C181.555 176.452 180.535 177.364 180.559 178.792C180.535 180.22 181.555 181.144 183.103 181.144ZM183.103 179.884C182.587 179.884 182.239 179.596 182.239 178.792C182.239 177.988 182.587 177.712 183.103 177.712C183.619 177.712 183.967 177.988 183.967 178.792C183.967 179.596 183.619 179.884 183.103 179.884Z" fill="white"/>
<path d="M303.636 156.18C305.76 156.18 307.032 155.04 307.032 153.108C307.032 151.344 306.012 150.264 304.32 150.264C303.516 150.264 302.904 150.492 302.544 150.924L302.736 149.52H306.576V147.66H300.984L300.456 152.52L302.568 152.712C302.724 152.208 303.096 151.932 303.624 151.932C304.236 151.932 304.644 152.424 304.644 153.18C304.644 153.912 304.248 154.344 303.576 154.344C303.048 154.344 302.664 153.996 302.556 153.42L300.24 153.816C300.492 155.292 301.764 156.18 303.636 156.18ZM312.187 156.168H313.603L319.399 147.24H318.007L312.187 156.168ZM312.823 152.028C314.371 152.028 315.391 151.104 315.367 149.676C315.391 148.248 314.371 147.336 312.823 147.336C311.275 147.336 310.255 148.248 310.279 149.676C310.255 151.104 311.275 152.028 312.823 152.028ZM312.823 150.768C312.307 150.768 311.959 150.48 311.959 149.676C311.959 148.872 312.307 148.596 312.823 148.596C313.339 148.596 313.687 148.872 313.687 149.676C313.687 150.48 313.339 150.768 312.823 150.768ZM318.763 156.144C320.311 156.144 321.331 155.22 321.307 153.792C321.331 152.364 320.311 151.452 318.763 151.452C317.215 151.452 316.195 152.364 316.219 153.792C316.195 155.22 317.215 156.144 318.763 156.144ZM318.763 154.884C318.247 154.884 317.899 154.596 317.899 153.792C317.899 152.988 318.247 152.712 318.763 152.712C319.279 152.712 319.627 152.988 319.627 153.792C319.627 154.596 319.279 154.884 318.763 154.884Z" fill="white"/>
<path d="M232.568 156.144C233.552 156.144 234.308 155.676 234.584 154.908C234.596 155.292 234.632 155.688 234.68 156H235.748C235.604 155.532 235.544 154.896 235.544 153.972V152.352C235.544 150.6 234.824 149.856 233.18 149.856C231.776 149.856 230.816 150.66 230.732 151.884H231.824C231.872 151.128 232.376 150.696 233.192 150.696C234.116 150.696 234.512 151.14 234.512 152.244V152.34L233.396 152.472C232.412 152.592 231.836 152.736 231.38 152.964C230.84 153.264 230.54 153.78 230.54 154.38C230.54 155.448 231.344 156.144 232.568 156.144ZM232.796 155.304C232.064 155.304 231.62 154.944 231.62 154.356C231.62 153.768 232.004 153.456 232.892 153.324L234.524 153.084V153.384C234.524 154.548 233.84 155.304 232.796 155.304ZM237.549 150V156H238.569V152.496C238.569 151.404 239.085 150.732 239.925 150.732C240.645 150.732 241.053 151.224 241.053 152.1V156H242.073V152.448C242.073 151.356 242.565 150.732 243.417 150.732C244.173 150.732 244.557 151.212 244.557 152.148V156H245.577V152.064C245.577 150.672 244.905 149.856 243.753 149.856C242.937 149.856 242.325 150.252 241.929 151.056C241.653 150.276 241.053 149.856 240.225 149.856C239.421 149.856 238.845 150.252 238.509 151.044V150H237.549ZM249.813 156.144C251.505 156.144 252.609 154.956 252.609 153C252.609 151.044 251.505 149.856 249.813 149.856C248.121 149.856 247.017 151.044 247.017 153C247.017 154.956 248.121 156.144 249.813 156.144ZM249.813 155.256C248.733 155.256 248.097 154.488 248.097 153C248.097 151.512 248.733 150.744 249.813 150.744C250.893 150.744 251.529 151.512 251.529 153C251.529 154.488 250.893 155.256 249.813 155.256ZM255.173 151.368V150H254.225V156H255.245V153.432C255.245 152.712 255.269 151.908 255.845 151.332C256.133 151.044 256.541 150.864 257.165 150.864H257.213V149.868C257.141 149.856 257.069 149.856 256.997 149.856C256.085 149.856 255.461 150.528 255.173 151.368ZM257.871 150.84H258.987V154.2C258.987 155.316 259.323 156.108 260.619 156.108C261.003 156.108 261.243 156.072 261.507 156V155.064C261.303 155.112 261.147 155.148 260.883 155.148C260.271 155.148 260.007 154.848 260.007 154.164V150.84H261.507V150H260.007V147.996L258.987 148.428V150H257.871V150.84ZM263.26 158.4C264.268 158.4 264.988 157.896 265.54 156.384L267.88 150H266.776L265.384 154.176C265.288 154.476 265.216 154.716 265.18 154.884H265.156C265.12 154.716 265.06 154.476 264.952 154.176L263.416 150H262.276L264.664 155.928L264.508 156.372C264.232 157.152 263.86 157.476 263.14 157.476C263.008 157.476 262.864 157.476 262.708 157.452V158.352C262.9 158.388 263.08 158.4 263.26 158.4ZM268.424 155.22V156H273.104V155.124H269.684L272.924 150.756V150H268.544V150.864H271.7L268.424 155.22ZM275.798 156.144C276.782 156.144 277.538 155.676 277.814 154.908C277.826 155.292 277.862 155.688 277.91 156H278.978C278.834 155.532 278.774 154.896 278.774 153.972V152.352C278.774 150.6 278.054 149.856 276.41 149.856C275.006 149.856 274.046 150.66 273.962 151.884H275.054C275.102 151.128 275.606 150.696 276.422 150.696C277.346 150.696 277.742 151.14 277.742 152.244V152.34L276.626 152.472C275.642 152.592 275.066 152.736 274.61 152.964C274.07 153.264 273.77 153.78 273.77 154.38C273.77 155.448 274.574 156.144 275.798 156.144ZM276.026 155.304C275.294 155.304 274.85 154.944 274.85 154.356C274.85 153.768 275.234 153.456 276.122 153.324L277.754 153.084V153.384C277.754 154.548 277.07 155.304 276.026 155.304ZM282.941 156.144C284.285 156.144 285.185 155.352 285.401 153.984L284.429 153.828C284.273 154.764 283.769 155.256 282.953 155.256C281.885 155.256 281.261 154.428 281.261 152.988C281.261 151.584 281.885 150.744 282.917 150.744C283.733 150.744 284.261 151.248 284.369 152.16L285.413 152.04C285.257 150.66 284.345 149.856 282.941 149.856C281.237 149.856 280.181 151.044 280.181 153C280.181 154.92 281.261 156.144 282.941 156.144ZM286.941 148.884H288.105V147.6H286.941V148.884ZM286.509 158.424C287.709 158.424 288.033 157.56 288.033 156.6V150H287.013V156.492C287.013 157.308 286.809 157.5 286.365 157.5C286.257 157.5 286.125 157.5 285.777 157.476V158.352C285.957 158.4 286.293 158.424 286.509 158.424ZM291.677 156.144C292.661 156.144 293.417 155.676 293.693 154.908C293.705 155.292 293.741 155.688 293.789 156H294.857C294.713 155.532 294.653 154.896 294.653 153.972V152.352C294.653 150.6 293.933 149.856 292.289 149.856C290.885 149.856 289.925 150.66 289.841 151.884H290.933C290.981 151.128 291.485 150.696 292.301 150.696C293.225 150.696 293.621 151.14 293.621 152.244V152.34L292.505 152.472C291.521 152.592 290.945 152.736 290.489 152.964C289.949 153.264 289.649 153.78 289.649 154.38C289.649 155.448 290.453 156.144 291.677 156.144ZM291.905 155.304C291.173 155.304 290.729 154.944 290.729 154.356C290.729 153.768 291.113 153.456 292.001 153.324L293.633 153.084V153.384C293.633 154.548 292.949 155.304 291.905 155.304Z" fill="white"/>
</svg>
