<svg xmlns="http://www.w3.org/2000/svg" xmlns:xlink="http://www.w3.org/1999/xlink" width="1374" height="564.999" viewBox="0 0 1374 564.999">
  <defs>
    <clipPath id="clip-path">
      <rect id="Rectangle_19" data-name="Rectangle 19" width="1374" height="564.999" transform="translate(0 93.001)" fill="none"/>
    </clipPath>
    <clipPath id="clip-path-2">
      <rect id="Rectangle_18" data-name="Rectangle 18" width="1374" height="565" transform="translate(0 93)" fill="none"/>
    </clipPath>
  </defs>
  <g id="Group_37" data-name="Group 37" transform="translate(-273 -202.001)">
    <g id="Group_36" data-name="Group 36">
      <g id="Group_35" data-name="Group 35">
        <g id="Group_33" data-name="Group 33">
          <path id="Path_63" data-name="Path 63" d="M353.7,481.71q-23.924,64-70.864,101.963-46.954,37.982-102.56,37.973-64,0-103.756-39.766-39.78-39.766-39.768-103.757,0-65.779,54.121-116.615t124.685-50.832q51.427,0,80.136,20.932t27.509,53.823Q322,399.781,312.44,404.268t-34.685,4.483H106.723a98.912,98.912,0,0,0-1.5,13.757q-.309,7.176-.3,14.95,0,56.818,36.18,92.1T234.7,564.836q40.059.6,69.072-20.932t46.346-63.986c.792-1.992,1.793-2.589,2.99-1.8s1.392,2,.6,3.587M247.257,371.674q0-22.116-14.95-36.478T192.24,320.843q-33.5,0-55.916,22.427t-29,61.894q26.912-.586,52.028-1.2,25.116-.586,55.616-1.792a62.775,62.775,0,0,0,14.352-2.692q6.575-2.09,9.569-4.486a22,22,0,0,0,6.28-9.27,41.054,41.054,0,0,0,2.092-14.054" transform="translate(273 109)" fill="#0eff6e"/>
          <path id="Path_64" data-name="Path 64" d="M574.965,558.856q-23.925,31.1-52.625,46.944a124.393,124.393,0,0,1-61,15.846q-50.836,0-81.63-35.582t-30.8-91.8q0-80.733,48.139-132.161t120.5-51.431a120.4,120.4,0,0,1,29.3,3.588,127.736,127.736,0,0,1,28.107,10.765V219.779a197.713,197.713,0,0,0-1.2-24.22,54.6,54.6,0,0,0-3.588-14.652q-3-7.176-9.568-8.971-6.59-1.794-25.118,1.795-3.586.6-3.587-2.1t3.587-3.287q19.133-3.588,49.935-15.55t50.533-23.323q1.794-1.191,6.877.6c3.382,1.2,5.083,2.392,5.083,3.588V544.5q0,47.85,5.082,56.811t25.419,8.97q3.586,0,3.584,2.691t-3.584,2.692q-32.3,0-59.8,1.495t-40.666,4.484q-3.59.591-5.382-.6c-1.2-.8-1.794-2.392-1.794-4.784v-1.795a35.968,35.968,0,0,1,.6-4.784q1.794-15.545,2.691-27.21t.9-23.621M500.214,319.05q-38.881,0-57.112,34.386-18.247,34.395-18.239,106.746,0,61.6,21.529,97.478t59.2,35.879q18.529,0,35.882-10.463t33.488-31.994V372.872Q561.2,348.355,541.477,333.7t-41.263-14.65" transform="translate(273 109)" fill="#0eff6e"/>
          <path id="Path_65" data-name="Path 65" d="M928.8,592.943q-22.732,14.953-45.152,21.828a165.752,165.752,0,0,1-48.736,6.875q-68.178,0-109.14-39.169T684.807,478.123q0-65.779,54.122-116.615t124.686-50.832q51.426,0,80.135,20.932t27.51,53.823q-1.207,14.35-10.765,18.837-9.573,4.486-34.686,4.483H754.775a98.769,98.769,0,0,0-1.493,13.757q-.307,7.176-.3,14.95,0,57.409,37.078,92.392t96.879,34.986q50.23,0,86.413-32.891t55.915-96.282c.793-2.392,1.8-3.485,2.991-3.288s1.392,1.7.6,4.484a331.107,331.107,0,0,1-42.457,91.2q-28.119,42.16-61.6,64.885M895.31,371.674q0-22.116-14.95-36.478t-40.068-14.353q-33.5,0-55.915,22.427t-29,61.894q26.911-.586,52.027-1.2,25.117-.586,55.618-1.792a62.737,62.737,0,0,0,14.35-2.692q6.576-2.09,9.57-4.486a21.988,21.988,0,0,0,6.279-9.27,40.981,40.981,0,0,0,2.092-14.054" transform="translate(273 109)" fill="#0eff6e"/>
          <path id="Path_66" data-name="Path 66" d="M1037.041,615.068q-16.752.6-24.519.6H999.364q-3.586,0-3.587-2.691t3.587-2.691q18.529,0,23.324-12.558,4.778-12.556,4.783-53.223V401.577q0-10.164-6.578-21.229t-20.929-24.22a3.242,3.242,0,0,1-1.2-2.1c0-.6.391-1.093,1.2-1.495q11.349-4.174,39.169-19.137,27.805-14.941,34.983-21.528c.8-.794,1.392-1.093,1.8-.9a9.253,9.253,0,0,1,1.8,1.5q9.555,8.969,17.042,28.407,7.47,19.44,7.475,36.777,25.707-34.086,52.626-50.534t56.814-16.445q47.234,0,71.163,30.2,23.91,30.2,23.921,90.6V557.062q0,31.1,4.783,42.46t22.128,10.763q3.586,0,3.587,2.691t-3.587,2.691h-6.579q-5.382,0-22.724-.6-27.515,0-37.974-.3t-13.457-.3h-5.383q-3.586,0-12.558.6-13.764.6-20.632.6h-12.258q-3.588,0-3.588-2.691t3.588-2.691q20.926,0,26.015-11.063,5.073-11.058,5.083-45.748l-.6-124.39q-.6-44.246-15.25-66.677t-43.356-22.427a68.56,68.56,0,0,0-36.778,10.166q-16.456,10.176-34.386,34.089v226.05h31.1q3.588,0,3.588,2.691t-3.588,2.691h-6.282q-5.085,0-21.228-.6-25.722,0-35.582-.3t-12.858-.3h-5.979q-4.191,0-14.95.6" transform="translate(273 109)" fill="#0eff6e"/>
        </g>
      </g>
    </g>
  </g>
</svg>
