<svg xmlns="http://www.w3.org/2000/svg" xmlns:xlink="http://www.w3.org/1999/xlink" width="242" height="131" viewBox="0 0 242 133">
    <defs>
        <style>.cls-1{fill:#0eff6e;}</style>
    </defs>
    <g id="Warstwa_2">
        <g id="Warstwa_2-2">
            <path class="cls-1"
                  d="M36.87,67.37c0-5,2.87-8.55,7.75-8.55,4.41,0,6.24,2.73,6.63,5l-2.93.51a3.55,3.55,0,0,0-3.74-3.12c-3,0-4.68,2.48-4.68,6.19s1.56,6.15,4.7,6.15a4,4,0,0,0,4.15-4.2V69h-4.4V66.73h7.08v8.76H49.32L49.07,73a5.17,5.17,0,0,1-5,2.89C39.55,75.88,36.87,72.4,36.87,67.37Z"/>
            <path class="cls-1"
                  d="M60.44,69H57.57v6.53h-3V59.21h6.55c4.2,0,5.65,2.2,5.65,4.88a4.46,4.46,0,0,1-3.42,4.48l3.88,6.92H64Zm-2.87-2.21h3.1c2.22,0,3-1.12,3-2.66s-.83-2.63-3-2.63h-3.1Z"/>
            <path class="cls-1" d="M72.31,59.21V69.64c0,2.3,1.28,3.74,3.57,3.74s3.6-1.44,3.6-3.74V59.21h3V69.8c0,3.67-2.38,6.08-6.56,6.08s-6.53-2.41-6.53-6.08V59.21Z"/>
            <path class="cls-1"
                  d="M98,64.16c0,3.08-2.21,5-5.72,5H88.78v6.3h-3V59.21h6.45C95.73,59.21,98,61.16,98,64.16Zm-3.12,0c0-1.68-1.2-2.73-3.12-2.73H88.78v5.46h2.94C93.64,66.94,94.84,65.91,94.84,64.21Z"/>
            <path class="cls-1" d="M108.12,71.2h-6.38l-1.47,4.29h-3l6-16.28h3.21l6.06,16.28h-3ZM107.34,69l-1.91-5.51a16,16,0,0,1-.48-1.74h0a14,14,0,0,1-.49,1.74L102.52,69Z"/>
            <path class="cls-1"
                  d="M43.84,89.59H41v6.54H38V79.85h6.56c4.19,0,5.64,2.2,5.64,4.88a4.46,4.46,0,0,1-3.42,4.48l3.88,6.92H47.42ZM41,87.39h3.09c2.23,0,3-1.12,3-2.66s-.82-2.63-3-2.63H41Z"/>
            <path class="cls-1"
                  d="M52,88c0-5.3,3-8.53,7.71-8.53s7.7,3.23,7.7,8.53-3,8.53-7.7,8.53S52,93.2,52,88Zm12.34,0c0-3.83-1.7-6.15-4.63-6.15S55.07,84.16,55.07,88s1.72,6.15,4.63,6.15S64.33,91.82,64.33,88Z"/>
            <path class="cls-1"
                  d="M82.34,91.61c0,2.3-1.52,4.52-5.46,4.52H70V79.85h6.45c4,0,5.41,2.13,5.41,4.26a3.57,3.57,0,0,1-2.82,3.56A3.7,3.7,0,0,1,82.34,91.61ZM73,82.1v4.63h3c2.29,0,2.86-1.17,2.86-2.3S78.19,82.1,76,82.1Zm6.31,9.24c0-1.4-.87-2.43-2.82-2.43H73v5h3.33C78.51,93.88,79.31,92.71,79.31,91.34Z"/>
            <path class="cls-1"
                  d="M84,88c0-5.3,3-8.53,7.7-8.53s7.71,3.23,7.71,8.53-3,8.53-7.71,8.53S84,93.2,84,88Zm12.33,0c0-3.83-1.69-6.15-4.63-6.15S87.08,84.16,87.08,88s1.72,6.15,4.63,6.15S96.34,91.82,96.34,88Z"/>
            <path class="cls-1"
                  d="M101.08,88c0-5.07,2.78-8.51,7.66-8.51,4.06,0,6.38,2.31,6.81,5.78l-3,.43c-.28-2.31-1.63-3.78-3.88-3.78-2.86,0-4.52,2.41-4.52,6s1.61,6.1,4.59,6.1c2.09,0,3.51-1.4,3.92-3.69l2.94.6a6.54,6.54,0,0,1-6.88,5.57C103.58,96.52,101.08,92.9,101.08,88Z"/>
            <path class="cls-1" d="M125.27,82.23h-8.21V79.85h11.51v2.38L120,93.77h8.88v2.36H116.74V93.75Z"/>
            <path class="cls-1" d="M141,91.84h-6.37l-1.47,4.29h-3l6-16.28h3.21l6.06,16.28h-3Zm-.78-2.25-1.9-5.5a16,16,0,0,1-.48-1.74h-.05a14,14,0,0,1-.48,1.74l-1.9,5.5Z"/>
            <path class="cls-1"
                  d="M37.48,41.46h5.16v1.65A7,7,0,0,1,48,41.05c4,0,6.57,2.29,6.57,5.61,0,3.6-2.76,5.92-6.72,5.92a6.73,6.73,0,0,1-5.08-1.93v5.7H37.48Zm11.59,5.18c0-1.5-1.16-2.46-3.13-2.46s-3.3,1-3.3,2.44v.07c0,1.64,1.33,2.72,3.3,2.72S49.07,48.36,49.07,46.64Z"/>
            <path class="cls-1"
                  d="M55.22,46.81c0-3.53,3.41-5.76,8.66-5.76s8.63,2.23,8.63,5.76-3.41,5.77-8.63,5.77S55.22,50.35,55.22,46.81Zm11.83,0c0-1.58-1.29-2.61-3.17-2.61s-3.2,1-3.2,2.61,1.29,2.62,3.2,2.62S67.05,48.38,67.05,46.81Z"/>
            <path class="cls-1"
                  d="M72.35,41.46h5.22L79.22,47a10.39,10.39,0,0,1,.3,1.35h0A5.21,5.21,0,0,1,79.91,47l2-5.57h5.23l2,5.57a7.62,7.62,0,0,1,.34,1.35h0A11.15,11.15,0,0,1,89.72,47l1.65-5.57H96.6L92.38,52.17H86.76l-1.84-5.08a7.63,7.63,0,0,1-.4-1.54h-.09A6.1,6.1,0,0,1,84,47.09l-1.84,5.08H76.59Z"/>
            <path class="cls-1"
                  d="M112.85,47.86H101.5c.39,1,1.65,1.61,3.49,1.61a4.92,4.92,0,0,0,3.41-1.24l3.94,1.69c-1.52,1.67-4.13,2.66-7.58,2.66-5.23,0-8.29-2.12-8.29-5.77s3.19-5.76,8.2-5.76c5.27,0,8.18,2.38,8.18,6.34Zm-5.18-2.46c-.06-.9-1.18-1.71-3-1.71s-2.91.66-3.19,1.71Z"/>
            <path class="cls-1"
                  d="M124,41.14a8.2,8.2,0,0,1,1.41.1v4.37a9.67,9.67,0,0,0-1.88-.19,4.29,4.29,0,0,0-2.72.77A3.62,3.62,0,0,0,119.69,49v3.19h-5.27V41.46H119v3.21A4.83,4.83,0,0,1,124,41.14Z"/>
            <path class="cls-1"
                  d="M142.32,47.86H131c.39,1,1.66,1.61,3.5,1.61a4.88,4.88,0,0,0,3.4-1.24l3.95,1.69c-1.53,1.67-4.14,2.66-7.59,2.66-5.23,0-8.29-2.12-8.29-5.77s3.19-5.76,8.21-5.76c5.27,0,8.18,2.38,8.18,6.34Zm-5.19-2.46c-.06-.9-1.17-1.71-3-1.71s-2.91.66-3.19,1.71Z"/>
            <path class="cls-1"
                  d="M143,46.73c0-3.39,2.7-5.68,6.7-5.68a7.12,7.12,0,0,1,5.1,1.71V36.64h5.27V52.17h-5.12v-2a6.38,6.38,0,0,1-5.42,2.45C145.64,52.58,143,50.26,143,46.73Zm11.91.11v-.18c0-1.5-1.37-2.48-3.32-2.48s-3.13,1-3.13,2.55,1.22,2.68,3.15,2.68S154.9,48.38,154.9,46.84Z"/>
            <path class="cls-1"
                  d="M176.83,50.46l-.37,1.71h-4.75V36.64H177V43a7.2,7.2,0,0,1,5.31-1.91c3.83,0,6.49,2.29,6.49,5.61,0,3.58-2.7,5.92-6.83,5.92A6.66,6.66,0,0,1,176.83,50.46Zm6.47-3.77c0-1.5-1.27-2.51-3.15-2.51s-3.39,1-3.39,2.44v.13c0,1.65,1.31,2.68,3.39,2.68C182.05,49.43,183.3,48.33,183.3,46.69Z"/>
            <path class="cls-1"
                  d="M189.42,56.45V52.66a13.75,13.75,0,0,0,2.53.28,5.23,5.23,0,0,0,2.59-.64l0,0-6.41-10.8H194l2.48,5.33a14.27,14.27,0,0,1,.67,1.5h.1c.22-.55.35-.75.62-1.41l2.42-5.42h5.62l-6,11.16c-1.54,2.87-3.54,4.13-7.22,4.13A16,16,0,0,1,189.42,56.45Z"/>
        </g>
    </g>
</svg>
