<svg xmlns="http://www.w3.org/2000/svg" xmlns:xlink="http://www.w3.org/1999/xlink" width="41.829" height="43.379" viewBox="0 0 41.829 43.379">
  <defs>
    <clipPath id="clip-path">
      <rect id="Rectangle_32" data-name="Rectangle 32" width="41.829" height="43.379" transform="translate(0 0)" fill="none"/>
    </clipPath>
  </defs>
  <g id="Group_27" data-name="Group 27" transform="translate(0 0)">
    <g id="Group_26" data-name="Group 26" clip-path="url(#clip-path)">
      <path id="Path_77" data-name="Path 77" d="M29.7,11.1A13.169,13.169,0,0,0,12.086,30.684c.174.157.352.308.534.455a5.357,5.357,0,0,1,2.1,4.1V38.73a4.648,4.648,0,0,0,4.648,4.648h3.1a4.648,4.648,0,0,0,4.648-4.648V35.364a5.074,5.074,0,0,1,1.848-4.028A13.169,13.169,0,0,0,29.7,11.1ZM24.013,38.73a1.549,1.549,0,0,1-1.549,1.55h-3.1a1.549,1.549,0,0,1-1.549-1.55V37.181h6.2Zm3.054-9.848a8.036,8.036,0,0,0-2.959,5.2H22.464v-6.2h1.549a1.549,1.549,0,1,0,0-3.1h-6.2a1.549,1.549,0,1,0,0,3.1h1.549v6.2H17.73a8.593,8.593,0,0,0-3.159-5.354,10.07,10.07,0,1,1,12.5.155Z" fill="#0eff6e"/>
    </g>
  </g>
</svg>
