<svg xmlns="http://www.w3.org/2000/svg" xmlns:xlink="http://www.w3.org/1999/xlink" width="265" height="190" viewBox="0 0 265 190">
  <g id="Group_38" data-name="Group 38" transform="translate(-373 -135)">
    <path id="Path_36" data-name="Path 36" d="M266.862,110.661H154.968a18.436,18.436,0,0,1-18.416-18.416V80.416A18.437,18.437,0,0,1,154.968,62H266.862a18.437,18.437,0,0,1,18.415,18.416V92.245a18.436,18.436,0,0,1-18.415,18.416M154.968,64.13a16.3,16.3,0,0,0-16.287,16.286V92.245a16.305,16.305,0,0,0,16.287,16.287H266.862a16.3,16.3,0,0,0,16.286-16.287V80.416A16.3,16.3,0,0,0,266.862,64.13Z" transform="translate(273 109)" fill="#0eff6e"/>
    <path id="Path_37" data-name="Path 37" d="M310.147,157.192H154.968a18.436,18.436,0,0,1-18.415-18.416V126.948a18.436,18.436,0,0,1,18.415-18.417H310.147a18.436,18.436,0,0,1,18.414,18.417v11.828a18.435,18.435,0,0,1-18.414,18.416M154.968,110.661a16.305,16.305,0,0,0-16.287,16.287v11.828a16.306,16.306,0,0,0,16.287,16.288H310.147a16.306,16.306,0,0,0,16.286-16.288V126.948a16.3,16.3,0,0,0-16.286-16.287Z" transform="translate(273 109)" fill="#0eff6e"/>
    <path id="Path_38" data-name="Path 38" d="M160.028,135.377H154.92V145.84h-3.37V120.656h9.328c6.6,0,8.336,3.69,8.336,7.378a6.743,6.743,0,0,1-5.675,6.882l6.455,10.924H166.2Zm-5.108-2.838h5.568c3.9,0,5.179-1.987,5.179-4.505,0-2.589-1.313-4.54-5.179-4.54H154.92Z" transform="translate(273 109)" fill="#0eff6e"/>
    <path id="Path_39" data-name="Path 39" d="M172.838,133.248c0-8.228,4.54-13.195,11.528-13.195,6.952,0,11.492,4.967,11.492,13.195,0,8.158-4.54,13.195-11.492,13.195-6.988,0-11.528-5.143-11.528-13.195m19.473,0c0-6.455-2.909-10.357-7.945-10.357s-7.981,3.9-7.981,10.357c0,6.314,2.944,10.357,7.981,10.357s7.945-3.937,7.945-10.357" transform="translate(273 109)" fill="#0eff6e"/>
    <path id="Path_40" data-name="Path 40" d="M218.495,138.923c0,3.227-1.95,6.917-8.335,6.917h-9.506V120.656h8.761c6.633,0,8.371,3.725,8.371,6.7a5.514,5.514,0,0,1-4.221,5.462,5.738,5.738,0,0,1,4.93,6.1m-14.471-15.429v8.087h5.391c4.328,0,5.036-2.235,5.036-3.973,0-1.986-.957-4.114-5.036-4.114Zm11.137,15.11c0-2.341-1.383-4.186-4.823-4.186h-6.314V143h5.958c3.937,0,5.179-2.128,5.179-4.4" transform="translate(273 109)" fill="#0eff6e"/>
    <path id="Path_41" data-name="Path 41" d="M221.693,133.248c0-8.228,4.54-13.195,11.528-13.195,6.951,0,11.491,4.967,11.491,13.195,0,8.158-4.54,13.195-11.491,13.195-6.988,0-11.528-5.143-11.528-13.195m19.472,0c0-6.455-2.908-10.357-7.944-10.357s-7.981,3.9-7.981,10.357c0,6.314,2.944,10.357,7.981,10.357s7.944-3.937,7.944-10.357" transform="translate(273 109)" fill="#0eff6e"/>
    <path id="Path_42" data-name="Path 42" d="M247.557,133.177c0-7.732,3.973-13.124,11.456-13.124,6.138,0,9.329,3.618,9.967,8.833l-3.44.354c-.5-3.8-2.8-6.314-6.7-6.314-4.93,0-7.732,4.115-7.732,10.215,0,5.889,2.66,10.358,7.8,10.358,3.582,0,6.1-2.377,6.81-6.136l3.263.567c-.956,4.753-4.008,8.513-10.073,8.513-7.8,0-11.35-5.959-11.35-13.266" transform="translate(273 109)" fill="#0eff6e"/>
    <path id="Path_43" data-name="Path 43" d="M285.8,123.494H272.108v-2.838h17.274v3.122L275.194,143h14.684v2.838H271.647v-3.121Z" transform="translate(273 109)" fill="#0eff6e"/>
    <path id="Path_44" data-name="Path 44" d="M307.3,138.569H297.015l-2.59,7.271h-3.476l9.541-25.184h3.336l9.541,25.184H309.89Zm-.993-2.838-3.511-9.825c-.213-.568-.39-1.171-.6-1.916h-.071c-.213.745-.39,1.348-.6,1.916l-3.511,9.825Z" transform="translate(273 109)" fill="#0eff6e"/>
    <path id="Path_45" data-name="Path 45" d="M149.6,86.742c0-8.228,4.539-13.195,11.527-13.195,6.952,0,11.492,4.967,11.492,13.195,0,8.158-4.54,13.195-11.492,13.195-6.988,0-11.527-5.143-11.527-13.195m19.472,0c0-6.455-2.909-10.357-7.945-10.357s-7.98,3.9-7.98,10.357c0,6.314,2.944,10.357,7.98,10.357s7.945-3.937,7.945-10.357" transform="translate(273 109)" fill="#0eff6e"/>
    <path id="Path_46" data-name="Path 46" d="M177.414,74.151h8.264c7.236,0,11.953,5.072,11.953,12.556,0,7.342-4.682,12.628-12.024,12.628h-8.193ZM185.536,96.5c5.427,0,8.513-4.4,8.513-9.79,0-5.6-3.015-9.718-8.442-9.718h-4.823V96.5Z" transform="translate(273 109)" fill="#0eff6e"/>
    <path id="Path_47" data-name="Path 47" d="M214.273,76.988H200.582V74.15h17.274v3.122L203.668,96.5h14.684v2.838H200.121V96.213Z" transform="translate(273 109)" fill="#0eff6e"/>
    <rect id="Rectangle_7" data-name="Rectangle 7" width="3.37" height="25.183" transform="translate(495.259 183.151)" fill="#0eff6e"/>
    <path id="Path_48" data-name="Path 48" d="M248.225,96.5v2.838H232.371V74.151h15.606v2.838H235.74V85h11.634v2.837H235.74V96.5Z" transform="translate(273 109)" fill="#0eff6e"/>
    <path id="Path_49" data-name="Path 49" d="M265.576,76.988h-13.69V74.151h17.273v3.121L254.97,96.5h14.685v2.838H251.423V96.213Zm-6.987-8.157h3.76v3.795h-3.76Z" transform="translate(273 109)" fill="#0eff6e"/>
    <path id="Path_50" data-name="Path 50" d="M149.494,168.54h3.476c3.045,0,5.029,2.133,5.029,5.282,0,3.088-1.97,5.312-5.058,5.312h-3.447Zm3.417,9.4c2.282,0,3.581-1.85,3.581-4.119,0-2.357-1.269-4.089-3.551-4.089h-2.03v8.208Z" transform="translate(273 109)" fill="#0eff6e"/>
    <path id="Path_51" data-name="Path 51" d="M163.583,174.733h-2.149v4.4h-1.418V168.54h3.925c2.775,0,3.506,1.552,3.506,3.1a2.835,2.835,0,0,1-2.387,2.895l2.716,4.6h-1.6Zm-2.149-1.2h2.343c1.641,0,2.178-.834,2.178-1.895,0-1.089-.552-1.91-2.178-1.91h-2.343Z" transform="translate(273 109)" fill="#0eff6e"/>
    <path id="Path_52" data-name="Path 52" d="M168.973,173.837c0-3.461,1.91-5.551,4.849-5.551,2.924,0,4.834,2.09,4.834,5.551,0,3.432-1.91,5.551-4.834,5.551-2.939,0-4.849-2.164-4.849-5.551m8.191,0c0-2.716-1.223-4.357-3.342-4.357s-3.357,1.641-3.357,4.357c0,2.655,1.238,4.357,3.357,4.357s3.342-1.656,3.342-4.357" transform="translate(273 109)" fill="#0eff6e"/>
    <path id="Path_53" data-name="Path 53" d="M188.031,171.672c0,1.91-1.4,3.134-3.6,3.134h-2.343v4.327h-1.417V168.54h3.76c2.193,0,3.6,1.223,3.6,3.132m-1.492,0c0-1.177-.881-1.94-2.254-1.94h-2.193v3.88h2.193c1.373,0,2.254-.76,2.254-1.94" transform="translate(273 109)" fill="#0eff6e"/>
    <path id="Path_54" data-name="Path 54" d="M193.407,168.54h1.716l4.491,7.714a8.565,8.565,0,0,1,.657,1.358h.03c-.03-.374-.045-.762-.045-1.4V168.54h1.268v10.593h-1.716l-4.491-7.713a7.5,7.5,0,0,1-.656-1.358h-.031c.031.373.046.761.046,1.4v7.669h-1.269Z" transform="translate(273 109)" fill="#0eff6e"/>
    <path id="Path_55" data-name="Path 55" d="M203.513,171.778a2.684,2.684,0,1,1,2.686,2.865,2.57,2.57,0,0,1-2.686-2.865m4.222,0c0-1.313-.582-2-1.536-2-.97,0-1.553.688-1.553,2s.583,2.014,1.553,2.014c.954,0,1.536-.687,1.536-2.014" transform="translate(273 109)" fill="#0eff6e"/>
    <rect id="Rectangle_8" data-name="Rectangle 8" width="1.746" height="1.761" transform="translate(483.409 286.372)" fill="#0eff6e"/>
    <path id="Path_56" data-name="Path 56" d="M213.573,178.03a38.349,38.349,0,0,0,3.522-2.971c1.312-1.267,1.76-2.132,1.76-3.372a1.918,1.918,0,1,0-3.835-.118,4.99,4.99,0,0,0,.12.954l-1.343-.133a3.4,3.4,0,0,1-.1-.836c0-1.836,1.253-3.014,3.342-3.014a2.9,2.9,0,0,1,3.223,3.133c0,1.462-.732,2.731-2.328,4.208a21.468,21.468,0,0,1-2.551,2.043h5v1.21h-6.8Z" transform="translate(273 109)" fill="#0eff6e"/>
    <path id="Path_57" data-name="Path 57" d="M279.667,178.03a38.089,38.089,0,0,0,3.521-2.971c1.313-1.267,1.761-2.132,1.761-3.372a1.919,1.919,0,1,0-3.836-.118,5.07,5.07,0,0,0,.12.954l-1.341-.133a3.273,3.273,0,0,1-.107-.836c0-1.836,1.254-3.014,3.343-3.014a2.9,2.9,0,0,1,3.224,3.133c0,1.462-.731,2.731-2.329,4.208a21.3,21.3,0,0,1-2.55,2.043h5v1.21h-6.8Z" transform="translate(273 109)" fill="#0eff6e"/>
    <path id="Path_58" data-name="Path 58" d="M287.816,173.956c0-3.327,1.371-5.416,4-5.416s4,2.089,4,5.416-1.373,5.4-4,5.4-4-2.088-4-5.4m6.655,0c0-2.64-.866-4.3-2.657-4.3s-2.656,1.657-2.656,4.3.865,4.282,2.656,4.282,2.657-1.655,2.657-4.282" transform="translate(273 109)" fill="#0eff6e"/>
    <path id="Path_59" data-name="Path 59" d="M296.936,178.03a38.094,38.094,0,0,0,3.521-2.971c1.313-1.267,1.761-2.132,1.761-3.372a1.918,1.918,0,1,0-3.835-.118,5.06,5.06,0,0,0,.119.954l-1.341-.133a3.314,3.314,0,0,1-.106-.836c0-1.836,1.254-3.014,3.342-3.014a2.9,2.9,0,0,1,3.224,3.133c0,1.462-.731,2.731-2.328,4.208a21.387,21.387,0,0,1-2.551,2.043h5v1.21h-6.8Z" transform="translate(273 109)" fill="#0eff6e"/>
    <path id="Path_60" data-name="Path 60" d="M304.863,178.03a38.094,38.094,0,0,0,3.521-2.971c1.313-1.267,1.761-2.132,1.761-3.372a1.918,1.918,0,1,0-3.835-.118,5.062,5.062,0,0,0,.119.954l-1.341-.133a3.314,3.314,0,0,1-.106-.836c0-1.836,1.254-3.014,3.342-3.014a2.9,2.9,0,0,1,3.224,3.133c0,1.462-.731,2.731-2.328,4.208a21.387,21.387,0,0,1-2.551,2.043h5v1.21h-6.8Z" transform="translate(273 109)" fill="#0eff6e"/>
    <rect id="Rectangle_14" data-name="Rectangle 14" width="265" height="190" transform="translate(373 135)" fill="none"/>
  </g>
</svg>
